<?xml version="1.0" standalone="no"?>
<!DOCTYPE svg PUBLIC "-//W3C//DTD SVG 20010904//EN"
 "http://www.w3.org/TR/2001/REC-SVG-20010904/DTD/svg10.dtd">
<svg version="1.0" xmlns="http://www.w3.org/2000/svg"
 width="626.000000pt" height="417.000000pt" viewBox="0 0 626.000000 417.000000"
 preserveAspectRatio="xMidYMid meet">

<g transform="translate(0.000000,417.000000) scale(0.100000,-0.100000)"
fill="#000000" stroke="none">
<path d="M284 4161 c14 -22 78 -41 138 -41 46 0 76 7 113 24 l50 24 -153 1
c-86 1 -151 -3 -148 -8z"/>
<path d="M1493 4143 c34 -77 50 -80 62 -10 l7 37 -40 0 c-41 0 -41 0 -29 -27z"/>
<path d="M2330 4166 c0 -2 15 -14 34 -25 47 -30 106 -28 136 4 l23 25 -96 0
c-53 0 -97 -2 -97 -4z"/>
<path d="M3590 4151 c0 -14 -12 -29 -35 -42 -40 -24 -49 -47 -40 -97 16 -87
71 -142 142 -142 38 0 50 5 79 34 28 28 34 42 34 75 0 86 -51 161 -108 161
-20 0 -44 7 -54 17 -17 15 -18 15 -18 -6z"/>
<path d="M4035 4155 c39 -18 123 -18 155 0 23 13 16 14 -80 14 -97 -1 -103 -2
-75 -14z"/>
<path d="M4808 4139 c-43 -35 -48 -54 -15 -63 23 -6 120 36 167 74 l25 20 -70
-1 c-63 0 -74 -3 -107 -30z"/>
<path d="M5920 4162 c0 -15 44 -51 82 -67 51 -21 124 -19 178 6 47 21 80 46
80 61 0 4 -76 8 -170 8 -93 0 -170 -4 -170 -8z"/>
<path d="M4668 4123 c31 -6 29 -51 -8 -165 -16 -51 -27 -94 -25 -96 9 -9 66
195 63 227 -3 31 -7 36 -28 37 -22 1 -22 0 -2 -3z"/>
<path d="M760 4111 c0 -5 7 -28 15 -51 22 -63 19 -107 -10 -142 -41 -48 -34
-59 32 -56 65 3 75 17 40 52 -19 19 -25 37 -30 97 -3 41 -8 82 -12 92 -7 17
-35 24 -35 8z"/>
<path d="M4559 4115 c-7 -6 27 -235 36 -243 4 -4 4 9 1 28 -23 149 -27 184
-23 201 5 18 -3 25 -14 14z"/>
<path d="M1940 4064 c0 -8 5 -12 10 -9 6 3 10 10 10 16 0 5 -4 9 -10 9 -5 0
-10 -7 -10 -16z"/>
<path d="M5580 4040 c-19 -5 -93 -18 -165 -30 -155 -25 -175 -32 -175 -61 0
-17 131 -267 197 -376 16 -28 53 -30 161 -9 112 21 116 27 109 171 -7 133 -30
280 -48 301 -13 15 -27 16 -79 4z m-108 -82 c67 -20 124 -80 173 -183 49 -102
58 -158 27 -174 -10 -5 -58 -17 -108 -25 -108 -20 -89 -36 -213 188 -91 164
-102 190 -78 199 24 10 160 7 199 -5z"/>
<path d="M106 4013 c-6 -14 -5 -15 5 -6 7 7 10 15 7 18 -3 3 -9 -2 -12 -12z"/>
<path d="M131 4014 c0 -11 3 -14 6 -6 3 7 2 16 -1 19 -3 4 -6 -2 -5 -13z"/>
<path d="M2650 4020 c0 -5 7 -10 16 -10 8 0 12 5 9 10 -3 6 -10 10 -16 10 -5
0 -9 -4 -9 -10z"/>
<path d="M2550 4010 c0 -5 7 -10 15 -10 8 0 15 5 15 10 0 6 -7 10 -15 10 -8 0
-15 -4 -15 -10z"/>
<path d="M2605 4000 c-3 -5 1 -10 10 -10 9 0 13 5 10 10 -3 6 -8 10 -10 10 -2
0 -7 -4 -10 -10z"/>
<path d="M2695 4000 c3 -5 8 -10 11 -10 2 0 4 5 4 10 0 6 -5 10 -11 10 -5 0
-7 -4 -4 -10z"/>
<path d="M5060 4000 c0 -5 -15 -10 -32 -11 -31 -1 -31 -1 -8 -8 14 -5 29 -4
35 1 5 4 16 8 25 8 12 0 13 -2 1 -9 -7 -5 -10 -14 -7 -20 5 -7 -3 -11 -21 -12
-15 0 -22 -3 -15 -6 6 -2 10 -9 7 -13 -3 -5 -1 -11 5 -15 5 -3 10 1 10 9 0 10
9 16 22 16 17 0 19 3 10 12 -9 9 -8 16 6 32 9 12 13 18 8 14 -5 -4 -17 -3 -27
3 -13 6 -19 6 -19 -1z"/>
<path d="M347 3968 c-14 -20 -18 -21 -28 -8 -9 13 -10 12 -5 -3 3 -10 6 -21 6
-24 0 -3 7 0 15 7 22 18 19 -4 -5 -31 -19 -24 -19 -24 -20 -3 0 12 -7 35 -15
50 l-15 29 -1 -30 c-5 -79 11 -128 36 -119 11 5 14 1 9 -12 -6 -16 -5 -17 7
-6 7 6 28 12 47 12 19 0 31 4 27 10 -3 5 0 7 8 4 8 -3 19 1 25 9 9 11 3 14
-29 16 -23 1 -48 -4 -57 -11 -14 -10 -15 -10 -5 1 6 7 9 21 5 30 -5 13 -3 14
9 5 23 -19 96 -3 83 18 -4 6 1 8 12 4 11 -3 26 -1 34 4 31 20 -45 10 -78 -10
-18 -11 -34 -20 -36 -20 -6 0 0 56 8 68 5 8 1 10 -10 5 -13 -5 -16 -3 -11 10
9 23 2 21 -16 -5z m78 -68 c-3 -5 -12 -10 -18 -10 -7 0 -6 4 3 10 19 12 23 12
15 0z"/>
<path d="M4965 3980 c3 -5 8 -10 11 -10 2 0 4 5 4 10 0 6 -5 10 -11 10 -5 0
-7 -4 -4 -10z"/>
<path d="M2470 3969 c0 -5 5 -7 10 -4 6 3 10 8 10 11 0 2 -4 4 -10 4 -5 0 -10
-5 -10 -11z"/>
<path d="M4040 3947 c-58 -23 -90 -65 -90 -117 0 -59 64 -120 125 -120 40 0
97 37 109 71 11 31 -2 162 -15 153 -5 -3 -22 4 -38 15 -35 25 -24 25 -91 -2z"/>
<path d="M4952 3938 c-2 -48 27 -70 44 -33 9 19 9 22 -2 18 -8 -3 -14 -9 -14
-14 0 -5 -4 -9 -9 -9 -6 0 -12 17 -14 38 l-4 37 -1 -37z"/>
<path d="M2680 3945 c0 -8 5 -15 10 -15 6 0 10 7 10 15 0 8 -4 15 -10 15 -5 0
-10 -7 -10 -15z"/>
<path d="M2412 3933 c-8 -14 -9 -24 -2 -28 12 -7 24 18 18 37 -3 8 -9 5 -16
-9z"/>
<path d="M2626 3942 c-2 -4 -1 -14 5 -22 7 -12 9 -10 9 8 0 23 -5 28 -14 14z"/>
<path d="M6118 3922 c-4 -12 1 -18 13 -18 14 0 15 4 8 18 -5 10 -11 18 -13 18
-2 0 -6 -8 -8 -18z"/>
<path d="M2510 3919 c0 -5 5 -7 10 -4 6 3 10 8 10 11 0 2 -4 4 -10 4 -5 0 -10
-5 -10 -11z"/>
<path d="M2586 3905 c-3 -8 -1 -15 4 -15 6 0 10 7 10 15 0 8 -2 15 -4 15 -2 0
-6 -7 -10 -15z"/>
<path d="M6030 3907 c0 -15 54 -17 68 -2 4 4 -1 5 -11 2 -10 -4 -27 -2 -38 3
-14 8 -19 7 -19 -3z"/>
<path d="M1358 3903 c34 -7 54 -44 50 -95 l-3 -43 -71 3 c-111 6 -171 -31
-194 -119 -20 -74 26 -166 97 -195 103 -44 257 22 287 123 17 54 -36 154 -88
167 -21 5 -22 10 -18 61 6 68 -14 106 -56 104 -24 -2 -24 -2 -4 -6z m-112
-370 c-11 -11 -19 6 -11 24 8 17 8 17 12 0 3 -10 2 -21 -1 -24z"/>
<path d="M3336 3902 c-3 -5 1 -9 9 -9 8 0 12 4 9 9 -3 4 -7 8 -9 8 -2 0 -6 -4
-9 -8z"/>
<path d="M6213 3891 c1 -14 9 -26 17 -28 10 -3 11 -2 4 4 -7 4 -14 17 -17 28
-5 16 -5 15 -4 -4z"/>
<path d="M1971 3884 c0 -11 3 -14 6 -6 3 7 2 16 -1 19 -3 4 -6 -2 -5 -13z"/>
<path d="M6168 3893 c6 -2 18 -2 25 0 6 3 1 5 -13 5 -14 0 -19 -2 -12 -5z"/>
<path d="M40 3871 l-35 -6 -3 -139 -3 -138 66 4 c55 3 69 8 96 33 37 36 59 82
59 127 -1 87 -77 137 -180 119z m110 -33 c0 -6 -6 -5 -15 2 -8 7 -15 14 -15
16 0 2 7 1 15 -2 8 -4 15 -11 15 -16z"/>
<path d="M6019 3846 c15 -16 20 -29 15 -38 -6 -10 -4 -10 9 1 9 7 24 11 32 7
9 -3 13 -2 10 4 -3 6 -13 10 -21 10 -18 0 -46 25 -37 34 4 3 -2 6 -12 6 -17 0
-16 -2 4 -24z"/>
<path d="M2549 3837 c-100 -37 -177 -155 -204 -308 -9 -48 10 -115 38 -134 38
-27 99 -19 148 19 145 111 222 336 140 410 -26 23 -79 29 -122 13z m41 -57 c0
-11 -4 -20 -10 -20 -5 0 -10 9 -10 20 0 11 5 20 10 20 6 0 10 -9 10 -20z m-28
-42 c-15 -15 -24 -6 -16 16 5 12 10 14 17 7 8 -8 8 -14 -1 -23z m4 -62 c3 -8
0 -24 -6 -36 -16 -29 -35 -11 -26 24 7 28 23 34 32 12z m-73 -42 c8 -8 -3 -34
-14 -34 -5 0 -9 9 -9 20 0 19 11 26 23 14z m-63 -43 c0 -6 -4 -13 -10 -16 -5
-3 -10 1 -10 9 0 9 5 16 10 16 6 0 10 -4 10 -9z m102 -36 c-12 -22 -27 -2 -18
22 5 12 10 13 17 6 7 -7 8 -17 1 -28z m-122 -34 c0 -6 -4 -13 -10 -16 -5 -3
-10 1 -10 9 0 9 5 16 10 16 6 0 10 -4 10 -9z m60 -26 c0 -8 -4 -15 -10 -15 -5
0 -10 7 -10 15 0 8 5 15 10 15 6 0 10 -7 10 -15z"/>
<path d="M825 3820 l-30 -8 33 -1 c17 0 32 4 32 9 0 6 -1 9 -2 9 -2 -1 -16 -5
-33 -9z"/>
<path d="M1981 3804 c0 -11 3 -14 6 -6 3 7 2 16 -1 19 -3 4 -6 -2 -5 -13z"/>
<path d="M2330 3810 c0 -5 5 -10 10 -10 6 0 10 5 10 10 0 6 -4 10 -10 10 -5 0
-10 -4 -10 -10z"/>
<path d="M6131 3797 c-1 -10 -5 -15 -11 -12 -6 4 -7 -1 -3 -11 6 -15 7 -15 15
0 5 9 7 22 4 29 -2 7 -5 4 -5 -6z"/>
<path d="M6150 3806 c0 -2 7 -7 16 -10 8 -3 12 -2 9 4 -6 10 -25 14 -25 6z"/>
<path d="M6191 3788 c1 -16 3 -18 6 -6 2 9 14 19 26 21 18 4 17 5 -5 6 -23 1
-28 -3 -27 -21z"/>
<path d="M745 3789 c-4 -6 -4 -13 -1 -16 3 -4 6 -1 6 6 0 7 5 9 10 6 8 -5 7
-11 -1 -21 -9 -11 -8 -14 5 -14 9 0 16 7 16 15 0 11 11 15 40 15 26 0 40 -4
40 -13 0 -7 6 -19 12 -25 7 -7 18 -30 25 -50 l12 -37 -6 34 c-3 19 -12 49 -20
68 -14 34 -15 35 -64 31 -27 -1 -49 0 -49 5 0 11 -18 9 -25 -4z"/>
<path d="M291 3786 c2 -2 40 -6 84 -8 45 -3 67 -2 50 2 -30 8 -142 13 -134 6z"/>
<path d="M2290 3759 c0 -5 5 -7 10 -4 6 3 10 8 10 11 0 2 -4 4 -10 4 -5 0 -10
-5 -10 -11z"/>
<path d="M4407 3763 c-3 -4 -15 -48 -28 -98 -20 -77 -23 -112 -22 -235 2 -162
18 -301 40 -343 8 -15 25 -32 39 -37 14 -6 90 -10 169 -10 144 0 145 0 175 28
37 33 44 70 61 297 12 169 7 281 -15 355 l-13 45 -49 -5 c-72 -7 -188 -6 -276
3 -42 4 -78 4 -81 0z m63 -49 c0 -14 -10 -49 -22 -77 -22 -49 -23 -65 -23
-274 1 -154 -2 -220 -10 -212 -6 6 -11 97 -13 235 -3 227 2 273 40 347 12 23
28 12 28 -19z"/>
<path d="M3140 3740 c0 -5 5 -10 11 -10 5 0 7 5 4 10 -3 6 -8 10 -11 10 -2 0
-4 -4 -4 -10z"/>
<path d="M452 3710 c0 -19 2 -27 5 -17 2 9 2 25 0 35 -3 9 -5 1 -5 -18z"/>
<path d="M410 3715 c0 -8 5 -15 10 -15 6 0 10 7 10 15 0 8 -4 15 -10 15 -5 0
-10 -7 -10 -15z"/>
<path d="M2011 3714 c0 -11 3 -14 6 -6 3 7 2 16 -1 19 -3 4 -6 -2 -5 -13z"/>
<path d="M706 3705 c-9 -26 -7 -32 5 -12 6 10 9 21 6 23 -2 3 -7 -2 -11 -11z"/>
<path d="M5954 3712 c3 -5 0 -13 -6 -15 -8 -3 -6 -6 5 -6 19 -1 23 14 5 25 -6
4 -8 3 -4 -4z"/>
<path d="M317 3704 c-4 -4 -7 -14 -7 -23 0 -11 3 -12 11 -4 6 6 10 16 7 23 -2
6 -7 8 -11 4z"/>
<path d="M373 3690 c-12 -28 -8 -39 8 -23 6 6 9 19 6 29 -3 17 -5 16 -14 -6z"/>
<path d="M3730 3700 c0 -5 7 -10 16 -10 8 0 12 5 9 10 -3 6 -10 10 -16 10 -5
0 -9 -4 -9 -10z"/>
<path d="M3595 3690 c-3 -5 1 -10 9 -10 9 0 16 5 16 10 0 6 -4 10 -9 10 -6 0
-13 -4 -16 -10z"/>
<path d="M3660 3679 c0 -5 5 -7 10 -4 6 3 10 8 10 11 0 2 -4 4 -10 4 -5 0 -10
-5 -10 -11z"/>
<path d="M5076 3644 c-3 -26 -4 -49 -2 -52 3 -2 8 17 11 43 4 25 5 48 3 51 -3
2 -8 -17 -12 -42z"/>
<path d="M3516 3671 c-4 -5 -2 -12 3 -15 5 -4 12 -2 15 3 4 5 2 12 -3 15 -5 4
-12 2 -15 -3z"/>
<path d="M5037 3673 c-9 -8 -9 -76 -1 -97 3 -9 10 -16 16 -16 5 0 6 5 2 11
-11 18 -10 99 1 103 6 3 6 5 -1 5 -6 1 -14 -2 -17 -6z"/>
<path d="M5117 3673 c-11 -10 -8 -41 4 -45 6 -2 7 -11 3 -22 -7 -19 -8 -19
-16 0 -6 14 -7 13 -3 -8 4 -20 0 -28 -12 -31 -17 -4 -17 -5 -1 -6 18 -1 65 75
54 87 -3 3 -6 0 -6 -7 0 -7 -5 -9 -10 -6 -6 4 -8 15 -5 26 7 20 3 24 -8 12z"/>
<path d="M417 3663 c-11 -10 -8 -43 3 -43 6 0 10 11 10 25 0 26 -2 29 -13 18z"/>
<path d="M690 3661 c0 -6 4 -13 10 -16 6 -3 7 1 4 9 -7 18 -14 21 -14 7z"/>
<path d="M3705 3661 c-3 -5 -1 -12 5 -16 5 -3 10 1 10 9 0 18 -6 21 -15 7z"/>
<path d="M2005 3637 c-4 -10 -5 -21 -1 -24 10 -10 18 4 13 24 -4 17 -4 17 -12
0z"/>
<path d="M3617 3643 c-10 -9 -9 -23 2 -23 5 0 11 7 15 15 5 15 -5 20 -17 8z"/>
<path d="M3786 3632 c-3 -6 -1 -14 5 -17 15 -10 25 3 12 16 -7 7 -13 7 -17 1z"/>
<path d="M302 3618 c-14 -14 -16 -38 -3 -38 10 0 26 39 19 46 -2 2 -10 -2 -16
-8z"/>
<path d="M441 3614 c0 -11 3 -14 6 -6 3 7 2 16 -1 19 -3 4 -6 -2 -5 -13z"/>
<path d="M692 3578 c-6 -23 -9 -44 -7 -46 2 -2 9 15 15 38 6 23 9 44 7 46 -2
3 -9 -14 -15 -38z"/>
<path d="M925 3585 c3 -22 5 -62 5 -89 0 -27 3 -46 6 -43 9 9 5 96 -6 137
l-10 35 5 -40z"/>
<path d="M2926 3611 c-3 -5 1 -11 9 -14 9 -4 12 -1 8 9 -6 16 -10 17 -17 5z"/>
<path d="M3410 3590 c0 -5 4 -10 9 -10 6 0 13 5 16 10 3 6 -1 10 -9 10 -9 0
-16 -4 -16 -10z"/>
<path d="M3680 3586 c0 -9 5 -16 10 -16 6 0 10 4 10 9 0 6 -4 13 -10 16 -5 3
-10 -1 -10 -9z"/>
<path d="M3850 3589 c0 -5 5 -7 10 -4 6 3 10 8 10 11 0 2 -4 4 -10 4 -5 0 -10
-5 -10 -11z"/>
<path d="M380 3575 c0 -8 5 -15 10 -15 6 0 10 7 10 15 0 8 -4 15 -10 15 -5 0
-10 -7 -10 -15z"/>
<path d="M431 3574 c0 -11 3 -14 6 -6 3 7 2 16 -1 19 -3 4 -6 -2 -5 -13z"/>
<path d="M2270 3580 c0 -5 5 -10 10 -10 6 0 10 5 10 10 0 6 -4 10 -10 10 -5 0
-10 -4 -10 -10z"/>
<path d="M3092 3573 c22 -24 39 -71 29 -77 -12 -8 -20 -56 -10 -62 5 -3 9 8 9
23 0 16 4 33 9 39 12 12 -16 81 -37 89 -15 5 -15 4 0 -12z"/>
<path d="M3051 3567 c-8 -10 -7 -14 2 -14 8 0 14 6 14 14 0 7 -1 13 -2 13 -2
0 -8 -6 -14 -13z"/>
<path d="M3620 3555 c0 -9 5 -15 11 -13 6 2 11 8 11 13 0 5 -5 11 -11 13 -6 2
-11 -4 -11 -13z"/>
<path d="M209 3555 c-5 -24 -1 -49 9 -53 7 -2 12 5 12 17 0 12 -5 21 -11 21
-5 0 -7 5 -4 10 3 6 4 10 1 10 -3 0 -6 -2 -7 -5z"/>
<path d="M272 3525 c-14 -29 2 -34 18 -6 12 24 13 31 2 31 -5 0 -14 -11 -20
-25z"/>
<path d="M408 3543 c-2 -5 -1 -26 2 -48 l6 -40 5 48 c4 41 -3 62 -13 40z"/>
<path d="M1734 3528 c-34 -40 -59 -73 -45 -61 7 6 20 9 27 6 8 -3 14 -3 14 0
0 2 7 21 15 41 18 42 16 44 -11 14z m-4 -28 c-6 -11 -13 -20 -16 -20 -2 0 0 9
6 20 6 11 13 20 16 20 2 0 0 -9 -6 -20z"/>
<path d="M3745 3540 c-3 -5 1 -10 10 -10 9 0 13 5 10 10 -3 6 -8 10 -10 10 -2
0 -7 -4 -10 -10z"/>
<path d="M330 3525 c-8 -9 -8 -15 -2 -15 12 0 26 19 19 26 -2 2 -10 -2 -17
-11z"/>
<path d="M3087 3520 c3 -11 7 -20 9 -20 2 0 4 9 4 20 0 11 -4 20 -9 20 -5 0
-7 -9 -4 -20z"/>
<path d="M3545 3531 c-6 -11 9 -23 19 -14 9 9 7 23 -3 23 -6 0 -12 -4 -16 -9z"/>
<path d="M654 3491 c1 -30 6 -46 16 -48 10 -3 11 -2 3 4 -6 4 -13 26 -16 48
-4 40 -4 40 -3 -4z"/>
<path d="M2280 3515 c0 -8 5 -15 10 -15 6 0 10 7 10 15 0 8 -4 15 -10 15 -5 0
-10 -7 -10 -15z"/>
<path d="M3050 3520 c-10 -6 -11 -10 -2 -10 6 0 12 -11 12 -25 0 -20 5 -25 23
-24 16 1 18 2 5 6 -15 4 -24 28 -19 56 1 9 -1 9 -19 -3z"/>
<path d="M3915 3520 c-3 -5 -1 -10 4 -10 6 0 11 5 11 10 0 6 -2 10 -4 10 -3 0
-8 -4 -11 -10z"/>
<path d="M5251 3514 c0 -11 3 -14 6 -6 3 7 2 16 -1 19 -3 4 -6 -2 -5 -13z"/>
<path d="M118 3513 c7 -3 16 -2 19 1 4 3 -2 6 -13 5 -11 0 -14 -3 -6 -6z"/>
<path d="M3351 3504 c0 -11 3 -14 6 -6 3 7 2 16 -1 19 -3 4 -6 -2 -5 -13z"/>
<path d="M357 3503 c-4 -3 -7 -15 -7 -25 0 -26 24 -17 28 10 3 21 -8 29 -21
15z"/>
<path d="M3620 3494 c0 -14 3 -14 15 -4 8 7 15 14 15 16 0 2 -7 4 -15 4 -8 0
-15 -7 -15 -16z"/>
<path d="M60 3470 c0 -5 4 -10 9 -10 6 0 13 5 16 10 3 6 -1 10 -9 10 -9 0 -16
-4 -16 -10z"/>
<path d="M200 3465 c0 -8 4 -15 9 -15 5 0 11 7 15 15 3 9 0 15 -9 15 -8 0 -15
-7 -15 -15z"/>
<path d="M280 3465 c0 -8 5 -15 10 -15 6 0 10 7 10 15 0 8 -4 15 -10 15 -5 0
-10 -7 -10 -15z"/>
<path d="M3566 3473 c-11 -11 -6 -23 8 -23 8 0 17 4 20 9 7 10 -19 23 -28 14z"/>
<path d="M3415 3459 c-4 -6 -5 -13 -2 -16 7 -7 27 6 27 18 0 12 -17 12 -25 -2z"/>
<path d="M126 3451 c-4 -7 -5 -15 -2 -18 9 -9 19 4 14 18 -4 11 -6 11 -12 0z"/>
<path d="M2297 3454 c-4 -4 -7 -14 -7 -23 0 -11 3 -12 11 -4 6 6 10 16 7 23
-2 6 -7 8 -11 4z"/>
<path d="M5040 3435 c0 -14 2 -25 4 -25 2 0 6 11 8 25 3 14 1 25 -3 25 -5 0
-9 -11 -9 -25z"/>
<path d="M5077 3452 c9 -5 13 -50 16 -142 l3 -135 2 143 c2 129 0 142 -15 142
-13 0 -14 -3 -6 -8z"/>
<path d="M5248 3449 c-2 -7 -1 -36 4 -63 5 -35 4 -54 -5 -65 -11 -14 -10 -14
6 -2 14 11 17 23 12 55 l-6 41 40 -45 c22 -25 41 -42 41 -39 0 4 -14 22 -31
40 -17 19 -36 47 -43 63 -8 18 -15 24 -18 15z"/>
<path d="M1642 3408 c-36 -54 -44 -68 -39 -68 2 0 21 25 41 55 20 30 34 55 32
55 -3 0 -18 -19 -34 -42z"/>
<path d="M3740 3440 c0 -5 5 -10 10 -10 6 0 10 5 10 10 0 6 -4 10 -10 10 -5 0
-10 -4 -10 -10z"/>
<path d="M323 3421 c-3 -11 -15 -22 -27 -24 -11 -2 -3 -5 19 -5 22 0 35 2 29
4 -7 3 -10 14 -7 24 3 11 2 20 -2 20 -4 0 -9 -9 -12 -19z"/>
<path d="M6041 3429 c-25 -5 -51 -15 -59 -22 -18 -19 -28 -92 -13 -101 17 -11
188 -36 244 -36 l47 0 0 46 c0 56 -26 83 -82 84 -24 0 -45 7 -58 20 -11 11
-23 20 -27 19 -5 -1 -28 -5 -52 -10z"/>
<path d="M18 3413 c12 -2 32 -2 45 0 12 2 2 4 -23 4 -25 0 -35 -2 -22 -4z"/>
<path d="M158 3413 c12 -2 30 -2 40 0 9 3 -1 5 -23 4 -22 0 -30 -2 -17 -4z"/>
<path d="M1874 3412 c-8 -5 -11 -52 -10 -142 2 -153 9 -175 74 -227 44 -36 88
-130 76 -165 -5 -17 -3 -18 14 -9 28 15 92 142 92 183 0 37 -23 65 -75 89 -27
13 -29 17 -26 66 3 67 -17 102 -80 139 -26 15 -47 30 -45 33 7 13 -10 40 -20
33z"/>
<path d="M238 3403 c7 -3 16 -2 19 1 4 3 -2 6 -13 5 -11 0 -14 -3 -6 -6z"/>
<path d="M2246 3395 c4 -8 10 -12 15 -9 14 8 10 24 -6 24 -9 0 -12 -6 -9 -15z"/>
<path d="M2925 3371 c-3 -5 -1 -12 5 -16 5 -3 10 -1 10 6 0 10 3 10 12 1 7 -7
19 -12 28 -12 8 0 2 7 -14 15 -33 18 -33 18 -41 6z"/>
<path d="M2835 3350 c3 -5 1 -20 -5 -32 l-11 -23 18 23 c12 15 25 21 36 16 9
-3 17 -4 17 -1 0 3 -14 10 -30 16 -18 6 -28 6 -25 1z"/>
<path d="M5033 3315 c0 -27 2 -38 4 -22 2 15 2 37 0 50 -2 12 -4 0 -4 -28z"/>
<path d="M5283 3343 c1 -13 4 -23 8 -23 4 0 14 -19 22 -42 9 -24 16 -36 16
-28 0 8 -10 38 -23 65 -15 32 -24 42 -23 28z"/>
<path d="M5730 3297 c-31 -43 -33 -45 -82 -43 -45 1 -55 -3 -88 -34 -50 -46
-63 -74 -54 -113 14 -67 53 -97 125 -97 119 0 179 112 103 191 -30 31 -27 52
13 99 14 17 23 33 20 36 -3 3 -19 -15 -37 -39z"/>
<path d="M2993 3323 c9 -2 14 -9 10 -15 -4 -7 0 -9 9 -5 11 4 18 -1 21 -14 4
-14 -1 -20 -21 -25 -46 -10 -52 -13 -52 -26 0 -9 3 -8 10 2 8 12 13 13 30 2
17 -10 20 -10 20 3 0 8 7 15 15 15 8 0 15 7 15 15 0 21 -37 55 -57 54 -17 -1
-17 -2 0 -6z"/>
<path d="M1157 3313 c-10 -9 -9 -23 2 -23 5 0 11 7 15 15 5 15 -5 20 -17 8z"/>
<path d="M2802 3300 c9 -14 25 -27 38 -28 12 -2 24 -11 27 -21 3 -13 12 -16
33 -13 24 3 32 -1 41 -22 7 -14 16 -26 21 -26 5 0 0 13 -11 29 -11 15 -17 32
-13 36 4 4 -8 4 -27 0 -26 -5 -32 -4 -26 5 5 9 4 11 -3 6 -7 -4 -12 -2 -12 3
0 6 -11 11 -24 11 -13 0 -31 10 -41 23 l-17 22 14 -25z"/>
<path d="M5271 3290 c-1 -33 46 -133 59 -125 5 3 9 21 9 38 l-2 32 -7 -35 c-6
-28 -16 -26 -11 3 0 4 -4 7 -10 7 -6 0 -8 7 -5 16 3 8 2 12 -3 9 -6 -3 -14 14
-19 37 -7 29 -10 35 -11 18z"/>
<path d="M1317 3289 c-25 -15 -47 -70 -46 -116 1 -33 3 -30 15 25 9 42 21 70
36 82 25 21 23 25 -5 9z"/>
<path d="M4134 3282 c-7 -4 -8 -16 -4 -27 7 -19 7 -19 14 3 9 27 5 34 -10 24z"/>
<path d="M3130 3270 c13 -8 12 -11 -5 -24 -11 -9 -23 -16 -28 -16 -15 0 -47
-66 -47 -96 0 -64 74 -85 113 -32 11 14 22 49 25 76 4 43 1 51 -19 66 -20 14
-22 18 -9 26 11 7 8 10 -15 10 -23 0 -26 -3 -15 -10z"/>
<path d="M1225 3249 c-4 -6 -5 -12 -2 -15 2 -3 7 2 10 11 7 17 1 20 -8 4z"/>
<path d="M213 3240 c2 -8 12 -16 23 -17 13 -2 15 -1 4 4 -8 3 -19 11 -23 17
-6 7 -7 6 -4 -4z"/>
<path d="M6044 3240 c-19 -7 -22 -19 -28 -117 -4 -60 -4 -116 -1 -125 14 -37
116 -53 134 -21 5 10 7 67 4 133 -4 88 -9 118 -21 128 -18 14 -57 15 -88 2z"/>
<path d="M5026 3225 c-11 -29 -7 -140 6 -153 18 -18 56 -14 68 7 10 20 15 99
5 89 -5 -4 -11 -47 -14 -91 -1 -5 -13 -7 -28 -5 -26 3 -28 6 -31 57 -2 30 0
66 3 79 5 21 8 22 22 10 14 -11 15 -11 11 2 -7 21 -34 24 -42 5z"/>
<path d="M1445 3198 c-18 -18 -18 -19 -1 -12 16 6 18 3 14 -29 -3 -32 -1 -37
17 -39 41 -3 51 -5 79 -17 16 -6 31 -10 33 -7 3 2 -6 7 -19 11 -13 4 -32 15
-42 24 -11 9 -16 10 -12 4 8 -14 -3 -17 -28 -7 -10 4 -16 18 -16 40 0 33 14
46 23 22 4 -8 6 -7 6 3 1 25 -31 28 -54 7z"/>
<path d="M3936 3211 c-4 -7 -5 -15 -2 -18 9 -9 19 4 14 18 -4 11 -6 11 -12 0z"/>
<path d="M181 3194 c0 -11 3 -14 6 -6 3 7 2 16 -1 19 -3 4 -6 -2 -5 -13z"/>
<path d="M214 3184 c-7 -27 19 -80 47 -94 11 -6 32 -10 47 -8 24 3 27 8 30 44
3 35 -1 45 -24 63 -37 29 -92 26 -100 -5z"/>
<path d="M3309 3197 c-28 -22 -40 -55 -33 -96 18 -113 103 -160 354 -196 171
-24 320 -16 393 21 41 22 67 71 67 128 0 42 -4 52 -37 85 l-38 36 -3 -28 c-2
-16 1 -42 7 -58 11 -33 3 -41 -74 -76 -109 -49 -547 8 -601 78 -6 8 -10 38
-10 66 1 57 0 59 -25 40z"/>
<path d="M5220 3202 c0 -20 37 -87 57 -102 17 -14 17 -14 1 5 -9 11 -26 41
-37 65 -11 25 -21 39 -21 32z"/>
<path d="M5061 3184 c0 -11 3 -14 6 -6 3 7 2 16 -1 19 -3 4 -6 -2 -5 -13z"/>
<path d="M1290 3184 c0 -17 23 -34 45 -33 14 0 16 2 5 6 -8 3 -23 12 -32 21
-10 8 -18 11 -18 6z"/>
<path d="M2536 3173 c-12 -12 -6 -24 35 -68 l42 -45 -37 0 c-20 0 -53 -7 -73
-15 -41 -17 -40 -31 1 -16 14 6 26 7 26 3 0 -4 -13 -13 -30 -19 -33 -13 -43
-38 -10 -28 16 5 20 2 20 -14 0 -29 14 -26 28 4 16 35 30 31 28 -6 -2 -47 21
-47 29 0 4 23 13 42 23 46 16 6 23 -1 48 -41 13 -22 44 -12 44 14 0 11 -7 25
-15 32 -8 7 -12 16 -10 21 7 11 33 1 74 -29 31 -23 33 -23 27 -4 -6 17 -3 20
16 15 20 -4 20 -3 -6 15 -16 11 -45 23 -65 27 l-36 7 40 33 c34 29 37 35 22
41 -12 4 -31 -4 -57 -25 -21 -17 -43 -31 -47 -31 -5 0 -25 16 -44 36 -38 40
-63 56 -73 47z"/>
<path d="M615 3160 c3 -5 8 -10 11 -10 2 0 4 5 4 10 0 6 -5 10 -11 10 -5 0 -7
-4 -4 -10z"/>
<path d="M6220 3117 c0 -31 -3 -63 -6 -72 -5 -13 -2 -16 12 -13 16 3 19 12 19
67 0 43 -4 66 -12 69 -9 2 -13 -12 -13 -51z"/>
<path d="M1336 3141 l-30 -6 28 -13 c35 -15 39 -15 33 2 -4 10 2 16 16 19 19
4 19 4 2 4 -11 1 -33 -2 -49 -6z"/>
<path d="M1583 3122 c15 -16 24 -32 20 -37 -5 -4 -2 -5 5 -1 11 6 7 15 -14 37
-15 16 -30 29 -33 29 -2 0 7 -13 22 -28z"/>
<path d="M3645 3130 c3 -5 8 -10 11 -10 2 0 4 5 4 10 0 6 -5 10 -11 10 -5 0
-7 -4 -4 -10z"/>
<path d="M1295 3115 c26 -21 111 -45 149 -44 27 2 27 2 6 6 -46 7 -115 26
-145 40 -28 13 -29 13 -10 -2z"/>
<path d="M5341 3104 c0 -11 3 -14 6 -6 3 7 2 16 -1 19 -3 4 -6 -2 -5 -13z"/>
<path d="M1630 3083 c0 -6 6 -14 13 -16 6 -3 -1 -6 -18 -7 -28 -2 -28 -2 9
-11 21 -5 41 -8 42 -6 2 2 -7 14 -21 27 -14 13 -25 19 -25 13z"/>
<path d="M5351 3064 c0 -11 3 -14 6 -6 3 7 2 16 -1 19 -3 4 -6 -2 -5 -13z"/>
<path d="M1504 3055 c6 -7 13 -9 16 -5 3 5 21 10 40 13 25 3 20 4 -16 4 -41 0
-49 -3 -40 -12z"/>
<path d="M1071 3044 c0 -11 3 -14 6 -6 3 7 2 16 -1 19 -3 4 -6 -2 -5 -13z"/>
<path d="M2409 2983 l-24 -28 26 23 c14 12 29 19 34 15 4 -5 5 -2 1 5 -9 16
-9 16 -37 -15z"/>
<path d="M4163 2972 c-3 -13 -11 -21 -18 -18 -19 7 -24 -28 -8 -55 13 -22 14
-23 10 -2 -4 16 -1 20 11 16 10 -4 13 -2 8 5 -10 17 4 62 21 62 8 0 11 -4 8
-10 -3 -5 -4 -10 -1 -10 3 0 10 8 15 18 7 14 5 17 -15 17 -18 0 -27 -7 -31
-23z"/>
<path d="M2750 2986 c0 -2 7 -7 16 -10 8 -3 12 -2 9 4 -6 10 -25 14 -25 6z"/>
<path d="M4197 2946 c-12 -9 -16 -22 -13 -40 3 -19 0 -26 -11 -26 -9 0 -13 -3
-10 -7 4 -3 18 0 32 7 23 12 23 14 7 27 -16 12 -15 14 7 33 26 22 16 27 -12 6z"/>
<path d="M4296 2938 c-37 -53 -1 -169 61 -195 92 -38 173 60 109 130 -32 34
-115 87 -137 87 -10 0 -25 -10 -33 -22z"/>
<path d="M2740 2925 c0 -11 9 -45 21 -75 18 -48 20 -68 14 -160 -13 -216 -36
-316 -78 -334 -17 -8 42 4 81 16 18 5 46 21 62 34 52 44 103 221 104 364 1 98
-12 129 -67 155 -23 12 -27 12 -14 2 23 -19 22 -23 -14 -36 -43 -15 -79 -14
-79 2 0 7 -7 22 -15 33 -14 19 -14 19 -15 -1z"/>
<path d="M4773 2918 c-2 -18 0 -20 7 -8 8 12 10 13 10 1 0 -8 2 -12 5 -9 7 7
-5 38 -14 38 -4 0 -8 -10 -8 -22z"/>
<path d="M455 2910 c3 -5 11 -10 16 -10 6 0 7 5 4 10 -3 6 -11 10 -16 10 -6 0
-7 -4 -4 -10z"/>
<path d="M5155 2895 c-52 -9 -101 -23 -115 -33 -38 -29 -49 -98 -13 -85 10 4
14 2 10 -4 -6 -9 64 -37 218 -88 11 -4 -11 9 -50 28 -38 20 -74 33 -80 30 -5
-4 -7 -3 -3 2 4 4 4 13 -1 19 -7 8 2 11 29 11 21 0 34 -3 28 -6 -6 -4 -2 -10
11 -14 11 -3 26 -3 32 1 7 4 9 3 6 -3 -9 -14 48 -37 64 -27 8 5 9 3 4 -6 -6
-10 -4 -12 9 -7 9 4 15 3 12 -2 -3 -5 8 -14 24 -21 16 -7 28 -16 25 -20 -3 -4
7 -11 21 -14 15 -4 24 -9 21 -12 -3 -3 -20 1 -39 9 -46 21 -91 30 -83 17 8
-12 -10 -13 -33 -1 -24 12 -97 22 -86 12 12 -12 320 -121 340 -121 26 0 5 19
-47 41 -28 12 -46 26 -42 30 8 8 59 -6 93 -24 8 -5 4 1 -9 12 -13 12 -18 21
-13 21 12 0 53 -27 113 -72 20 -16 43 -28 52 -28 10 0 17 -4 17 -10 0 -5 9
-10 19 -10 35 0 66 82 66 177 0 72 -3 84 -23 106 -26 28 -99 62 -177 84 -76
21 -293 25 -400 8z m-90 -125 c3 -5 1 -10 -4 -10 -6 0 -11 5 -11 10 0 6 2 10
4 10 3 0 8 -4 11 -10z"/>
<path d="M2363 2840 c0 -25 2 -35 4 -22 2 12 2 32 0 45 -2 12 -4 2 -4 -23z"/>
<path d="M2410 2876 c0 -2 7 -7 16 -10 8 -3 12 -2 9 4 -6 10 -25 14 -25 6z"/>
<path d="M767 2864 c-8 -8 1 -24 14 -24 5 0 9 7 9 15 0 15 -12 20 -23 9z"/>
<path d="M865 2860 c-10 -17 12 -37 25 -24 8 8 6 15 -4 23 -10 9 -16 9 -21 1z"/>
<path d="M935 2860 c3 -5 10 -10 16 -10 5 0 9 5 9 10 0 6 -7 10 -16 10 -8 0
-12 -4 -9 -10z"/>
<path d="M1020 2861 c0 -6 5 -13 10 -16 6 -3 10 1 10 9 0 9 -4 16 -10 16 -5 0
-10 -4 -10 -9z"/>
<path d="M2386 2855 c-3 -9 -6 -24 -5 -33 0 -9 5 -4 10 12 9 32 6 48 -5 21z"/>
<path d="M3150 2850 c-8 -5 -10 -10 -5 -10 6 0 17 5 25 10 8 5 11 10 5 10 -5
0 -17 -5 -25 -10z"/>
<path d="M1250 2840 c0 -5 5 -10 10 -10 6 0 10 5 10 10 0 6 -4 10 -10 10 -5 0
-10 -4 -10 -10z"/>
<path d="M1120 2830 c0 -5 5 -10 10 -10 6 0 10 5 10 10 0 6 -4 10 -10 10 -5 0
-10 -4 -10 -10z"/>
<path d="M1195 2830 c-3 -5 1 -10 9 -10 8 0 18 5 21 10 3 6 -1 10 -9 10 -8 0
-18 -4 -21 -10z"/>
<path d="M3120 2788 c8 -58 29 -80 75 -76 27 3 30 7 33 40 4 46 -25 79 -66 76
-15 -1 -32 1 -38 4 -7 5 -8 -10 -4 -44z"/>
<path d="M1060 2810 c0 -5 5 -10 10 -10 6 0 10 5 10 10 0 6 -4 10 -10 10 -5 0
-10 -4 -10 -10z"/>
<path d="M1355 2810 c3 -5 8 -10 11 -10 2 0 4 5 4 10 0 6 -5 10 -11 10 -5 0
-7 -4 -4 -10z"/>
<path d="M3532 2807 c-6 -6 -13 -26 -16 -42 l-6 -30 11 30 c7 17 16 36 22 43
12 16 3 16 -11 -1z"/>
<path d="M3570 2810 c-9 -6 -10 -10 -3 -10 6 0 15 5 18 10 8 12 4 12 -15 0z"/>
<path d="M40 2779 c0 -19 1 -19 22 -5 22 16 48 22 35 9 -11 -10 44 -55 60 -49
8 3 11 1 8 -4 -7 -12 53 -96 67 -92 5 1 7 -2 3 -8 -4 -6 1 -31 11 -56 12 -33
20 -42 26 -32 7 9 8 6 5 -9 -3 -13 0 -23 6 -23 6 0 8 -3 5 -6 -4 -3 -3 -18 1
-32 7 -23 4 -64 -13 -161 -6 -34 -21 -44 -22 -16 -1 13 -12 39 -25 57 -17 23
-18 29 -5 19 15 -13 19 -13 27 0 13 21 12 24 -24 41 -32 15 -33 15 -35 -6 0
-11 6 -31 14 -44 8 -13 13 -29 11 -35 -3 -7 -12 6 -22 28 -9 22 -29 68 -45
102 -15 34 -33 86 -40 116 -6 30 -17 63 -25 73 -8 11 -14 28 -14 39 0 11 3 14
6 7 2 -6 9 -10 13 -7 5 3 21 -15 35 -40 16 -27 31 -42 38 -38 7 3 4 -3 -5 -14
-19 -21 -23 -39 -10 -45 4 -1 15 -17 25 -35 16 -29 16 -33 1 -41 -15 -8 -15
-10 0 -15 10 -4 15 -3 12 2 -3 5 1 12 10 15 28 11 39 6 20 -9 -11 -8 -15 -15
-8 -15 16 0 53 41 46 52 -3 4 -14 8 -25 8 -11 0 -17 -4 -14 -10 3 -5 -2 -10
-11 -10 -10 0 -14 3 -11 7 4 3 1 13 -6 21 -7 10 -8 13 -1 9 19 -11 35 25 24
53 -1 3 -3 12 -5 20 -10 54 -35 89 -79 111 -45 22 -46 22 -61 3 -13 -17 -14
-17 -15 -2 0 23 -35 80 -43 71 -4 -3 -7 -140 -7 -304 l0 -297 23 -6 c57 -15
137 8 137 39 0 10 10 15 29 15 40 0 96 54 110 105 48 173 -98 465 -234 465
-19 0 -25 -5 -25 -21z m106 -27 c-4 -3 -14 2 -24 12 -16 18 -16 18 6 6 13 -6
21 -14 18 -18z m69 -73 c22 -41 11 -36 -14 7 -12 19 -16 32 -11 29 6 -3 17
-19 25 -36z m54 -119 c0 -8 -6 0 -14 19 -8 18 -15 36 -15 40 1 13 29 -45 29
-59z m-172 -2 c-3 -8 -6 -5 -6 6 -1 11 2 17 5 13 3 -3 4 -12 1 -19z m103 -2
c0 -2 -7 -6 -15 -10 -8 -3 -15 -1 -15 4 0 6 7 10 15 10 8 0 15 -2 15 -4z m-71
-95 c11 -41 19 -76 17 -79 -4 -3 -27 70 -42 133 -14 59 5 18 25 -54z m83 -175
c18 -15 26 -25 18 -24 -8 2 -23 12 -33 23 -18 20 -19 20 -14 -2 3 -13 2 -23
-3 -23 -4 0 -10 17 -13 38 -3 20 -8 46 -11 57 -4 11 0 6 8 -11 9 -18 30 -44
48 -58z"/>
<path d="M3606 2770 c10 -16 25 -31 33 -33 9 -3 -1 -5 -22 -6 -24 -1 -40 -7
-43 -16 -5 -13 -9 -13 -23 -3 -14 12 -15 11 -2 -4 17 -22 43 -24 35 -3 -5 12
3 15 35 15 45 0 53 13 20 30 -11 7 -18 18 -15 25 2 7 -2 16 -10 19 -25 10 -26
7 -8 -24z"/>
<path d="M743 2776 c-66 -9 -79 -24 -66 -74 7 -27 7 -27 42 -1 41 30 171 59
276 61 100 1 83 5 -80 16 -60 4 -138 3 -172 -2z"/>
<path d="M1278 2783 c7 -3 16 -2 19 1 4 3 -2 6 -13 5 -11 0 -14 -3 -6 -6z"/>
<path d="M2074 2740 c-74 -37 -224 -139 -238 -163 -14 -23 11 -71 40 -75 18
-3 235 119 278 157 30 27 39 60 21 87 -20 31 -30 30 -101 -6z"/>
<path d="M1143 2753 c9 -2 23 -2 30 0 6 3 -1 5 -18 5 -16 0 -22 -2 -12 -5z"/>
<path d="M3777 2749 c7 -7 15 -10 18 -7 3 3 -2 9 -12 12 -14 6 -15 5 -6 -5z"/>
<path d="M1259 2734 c75 -16 122 -41 136 -71 14 -33 50 -46 68 -25 8 9 17 26
19 36 3 22 -35 35 -177 61 -100 19 -132 18 -46 -1z"/>
<path d="M2363 2715 c0 -22 2 -30 4 -17 2 12 2 30 0 40 -3 9 -5 -1 -4 -23z"/>
<path d="M4667 2724 c7 -20 29 -23 29 -5 0 9 -8 17 -17 17 -9 0 -15 -6 -12
-12z"/>
<path d="M3508 2723 c7 -3 16 -2 19 1 4 3 -2 6 -13 5 -11 0 -14 -3 -6 -6z"/>
<path d="M3890 2720 c-23 -6 -22 -7 14 -14 43 -8 57 -2 29 12 -10 5 -29 6 -43
2z"/>
<path d="M5905 2699 c-4 -11 -4 -23 -1 -26 3 -4 6 1 6 10 0 9 5 19 12 23 6 4
9 3 6 -2 -3 -5 0 -15 8 -22 15 -13 18 -4 8 22 -9 23 -31 20 -39 -5z"/>
<path d="M3845 2690 c10 -11 20 -20 23 -20 3 0 -3 9 -13 20 -10 11 -20 20 -23
20 -3 0 3 -9 13 -20z"/>
<path d="M4021 2695 c9 -9 23 -13 33 -9 14 5 15 9 4 15 -7 5 -22 9 -33 9 -17
0 -18 -2 -4 -15z"/>
<path d="M4132 2689 c2 -7 10 -15 17 -17 8 -3 12 1 9 9 -2 7 -10 15 -17 17 -8
3 -12 -1 -9 -9z"/>
<path d="M3360 2664 c-14 -16 -17 -22 -8 -15 16 12 19 10 28 -14 5 -14 10 -31
10 -37 0 -6 7 -5 17 3 14 12 16 12 11 -1 -3 -8 -8 -26 -12 -40 -5 -21 -3 -20
9 5 19 41 18 55 -4 55 -15 0 -20 8 -23 36 l-3 36 -25 -28z"/>
<path d="M6215 2663 c-63 -33 -105 -90 -105 -143 0 -15 6 -20 28 -20 22 0 24
2 12 11 -12 8 -10 9 8 4 13 -4 41 -4 62 0 39 7 40 8 40 46 0 21 -2 39 -5 39
-11 0 -70 -32 -87 -48 -26 -22 -22 0 5 28 12 14 21 28 19 33 -1 5 2 6 7 3 14
-9 61 15 61 31 0 7 -6 13 -12 13 -9 0 -8 4 2 10 24 16 -2 11 -35 -7z m15 -13
c0 -5 -8 -10 -17 -10 -15 0 -16 2 -3 10 19 12 20 12 20 0z m-75 -57 l-28 -28
23 33 c12 18 24 31 27 28 3 -2 -7 -17 -22 -33z m-28 -75 c-3 -8 -6 -5 -6 6 -1
11 2 17 5 13 3 -3 4 -12 1 -19z"/>
<path d="M4196 2662 c-2 -4 4 -8 14 -8 10 0 16 4 14 8 -3 4 -9 8 -14 8 -5 0
-11 -4 -14 -8z"/>
<path d="M3286 2624 c-31 -37 -31 -76 1 -88 16 -6 16 -6 0 12 -9 10 -17 24
-17 31 0 19 28 43 41 35 8 -4 9 -3 5 5 -4 6 -2 18 4 26 7 8 9 15 4 14 -5 0
-22 -16 -38 -35z"/>
<path d="M4060 2651 c0 -12 39 -25 48 -16 7 7 -17 25 -35 25 -7 0 -13 -4 -13
-9z"/>
<path d="M5892 2624 c-2 -30 2 -41 13 -41 8 0 15 4 15 9 0 4 -4 8 -9 8 -6 0
-12 15 -14 33 -3 29 -4 28 -5 -9z"/>
<path d="M5964 2653 c15 -4 16 -7 5 -14 -11 -7 -12 -12 -2 -28 7 -11 9 -21 5
-24 -4 -2 -1 -2 6 -1 6 2 12 -2 12 -8 0 -6 3 -8 7 -5 3 4 -2 16 -12 27 -14 16
-16 23 -7 32 18 18 14 28 -10 27 -20 -1 -20 -2 -4 -6z"/>
<path d="M417 2630 c-16 -19 -16 -20 1 -20 11 0 18 8 18 20 0 11 -1 20 -1 20
0 0 -8 -9 -18 -20z"/>
<path d="M3980 2636 c0 -15 24 -28 34 -19 7 7 -13 33 -25 33 -5 0 -9 -6 -9
-14z"/>
<path d="M1640 2629 c0 -5 5 -7 10 -4 6 3 10 8 10 11 0 2 -4 4 -10 4 -5 0 -10
-5 -10 -11z"/>
<path d="M4060 2595 c0 -10 10 -15 28 -15 26 1 26 1 8 15 -25 19 -36 19 -36 0z"/>
<path d="M4152 2590 c0 -14 2 -19 5 -12 2 6 2 18 0 25 -3 6 -5 1 -5 -13z"/>
<path d="M4555 2591 c-3 -5 -1 -12 5 -16 5 -3 10 1 10 9 0 18 -6 21 -15 7z"/>
<path d="M4626 2592 c-3 -6 -1 -14 5 -17 15 -10 25 3 12 16 -7 7 -13 7 -17 1z"/>
<path d="M4482 2574 c4 -21 22 -23 26 -1 2 10 -3 17 -13 17 -10 0 -15 -6 -13
-16z"/>
<path d="M4735 2569 c-10 -15 3 -25 16 -12 7 7 7 13 1 17 -6 3 -14 1 -17 -5z"/>
<path d="M4812 2569 c2 -6 8 -10 13 -10 5 0 11 4 13 10 2 6 -4 11 -13 11 -9 0
-15 -5 -13 -11z"/>
<path d="M5935 2570 c3 -5 8 -10 11 -10 2 0 4 5 4 10 0 6 -5 10 -11 10 -5 0
-7 -4 -4 -10z"/>
<path d="M3600 2556 c-26 -33 7 -84 68 -101 16 -5 22 -2 22 9 0 9 12 16 32 18
17 2 33 10 35 18 4 12 3 13 -5 1 -6 -8 -21 -12 -40 -9 -17 2 -31 2 -30 -1 2
-26 -3 -30 -33 -19 -24 8 -28 13 -17 20 10 8 9 9 -4 4 -23 -7 -36 37 -18 59 7
8 10 15 7 15 -2 0 -10 -7 -17 -14z"/>
<path d="M3645 2549 c-22 -10 -33 -19 -25 -19 8 0 28 7 44 15 36 19 35 19 28
-7 -3 -14 -2 -19 6 -14 16 10 15 46 0 45 -7 0 -31 -9 -53 -20z"/>
<path d="M4380 2554 c0 -9 5 -14 12 -12 18 6 21 28 4 28 -9 0 -16 -7 -16 -16z"/>
<path d="M4900 2550 c0 -5 4 -10 9 -10 6 0 13 5 16 10 3 6 -1 10 -9 10 -9 0
-16 -4 -16 -10z"/>
<path d="M4660 2534 c0 -9 5 -14 12 -12 18 6 21 28 4 28 -9 0 -16 -7 -16 -16z"/>
<path d="M3322 2531 c-11 -7 -10 -10 3 -15 23 -8 63 -8 69 2 2 4 -11 6 -31 4
-25 -3 -34 -1 -29 7 8 13 6 14 -12 2z"/>
<path d="M3730 2530 c-13 -8 -13 -10 2 -10 9 0 20 5 23 10 8 13 -5 13 -25 0z"/>
<path d="M4317 2523 c-4 -3 -7 -11 -7 -17 0 -6 5 -5 12 2 6 6 9 14 7 17 -3 3
-9 2 -12 -2z"/>
<path d="M4470 2520 c0 -5 5 -10 10 -10 6 0 10 5 10 10 0 6 -4 10 -10 10 -5 0
-10 -4 -10 -10z"/>
<path d="M4560 2515 c0 -8 5 -15 10 -15 6 0 10 7 10 15 0 8 -4 15 -10 15 -5 0
-10 -7 -10 -15z"/>
<path d="M2148 2475 c2 -14 8 -27 12 -30 4 -2 5 7 2 20 -2 14 -8 27 -12 30 -4
2 -5 -7 -2 -20z"/>
<path d="M2182 2470 c0 -14 2 -19 5 -12 2 6 2 18 0 25 -3 6 -5 1 -5 -13z"/>
<path d="M2422 2471 c8 -14 25 -31 39 -39 l24 -14 -22 18 c-12 11 -30 28 -39
39 -15 19 -16 19 -2 -4z"/>
<path d="M4410 2474 c-8 -1 -36 -6 -62 -9 -42 -5 -48 -9 -48 -30 0 -31 17 -41
39 -21 21 19 91 45 151 56 l45 8 -55 0 c-30 0 -62 -2 -70 -4z"/>
<path d="M4685 2469 c129 -13 326 -47 342 -60 15 -13 29 -6 19 9 -11 18 -314
63 -404 61 -31 -1 -16 -5 43 -10z"/>
<path d="M5276 2451 c-4 -5 9 -29 28 -54 19 -24 37 -54 40 -65 4 -12 16 -24
27 -27 11 -4 31 -24 46 -46 14 -21 29 -39 33 -39 4 0 27 -26 51 -57 65 -88 72
-90 99 -30 26 56 25 112 -4 172 -47 100 -135 154 -248 155 -37 0 -69 -4 -72
-9z"/>
<path d="M760 2426 c0 -11 -9 -13 -37 -9 -35 6 -37 5 -24 -10 7 -10 19 -17 25
-17 6 0 4 5 -4 11 -12 8 -9 9 12 5 19 -4 30 -1 36 11 9 16 12 16 38 -1 l29
-17 -24 20 c-27 24 -51 27 -51 7z"/>
<path d="M846 2402 c-2 -4 4 -8 14 -8 10 0 16 4 14 8 -3 4 -9 8 -14 8 -5 0
-11 -4 -14 -8z"/>
<path d="M1714 2392 c-13 -9 -26 -42 -16 -42 4 0 12 11 19 25 6 14 10 25 10
25 -1 0 -7 -4 -13 -8z"/>
<path d="M5918 2386 c-114 -42 -168 -131 -168 -275 0 -59 5 -87 25 -128 24
-52 71 -93 107 -93 9 0 19 -6 21 -12 3 -8 6 -6 6 4 2 34 32 96 46 94 23 -3 28
-13 20 -43 l-8 -28 -7 25 c-8 24 -8 24 -9 2 -1 -12 6 -25 14 -28 10 -4 14 -14
10 -28 -2 -11 -2 -15 1 -8 3 6 10 12 15 12 6 0 7 -4 4 -10 -9 -15 55 -12 85 3
15 8 24 20 22 30 -2 11 4 17 17 17 47 0 94 136 84 247 -4 51 -27 102 -45 103
-13 0 -58 -74 -58 -95 0 -11 -17 -43 -38 -71 -20 -27 -44 -69 -51 -92 -13 -38
-31 -57 -31 -32 0 15 38 89 64 125 26 36 50 101 41 114 -7 13 24 91 37 91 5 0
7 9 3 19 -8 25 9 35 25 16 11 -13 10 -14 -6 -9 -15 6 -17 4 -7 -6 9 -10 5 -22
-18 -57 -17 -25 -29 -46 -26 -49 2 -3 22 22 43 56 22 33 42 60 46 60 4 0 10
-16 14 -36 4 -23 10 -32 16 -26 15 15 -15 96 -37 100 -10 2 -28 -2 -41 -9 -20
-10 -27 -10 -44 6 -27 24 -121 30 -172 11z m268 -23 c-11 -11 -35 -12 -42 -2
-3 5 7 9 22 9 15 0 24 -3 20 -7z m-171 -268 c-41 -73 -56 -87 -25 -22 45 90
55 107 58 97 2 -5 -13 -39 -33 -75z m106 38 c13 -16 12 -17 -3 -4 -10 7 -18
15 -18 17 0 8 8 3 21 -13z m67 -31 c2 -7 -6 -12 -17 -12 -21 0 -27 11 -14 24
9 9 26 2 31 -12z m-368 -50 c0 -13 -4 -20 -10 -17 -5 3 -10 21 -10 38 0 24 3
28 10 17 5 -8 10 -25 10 -38z m350 2 c0 -20 -18 -17 -29 5 -9 16 -8 18 9 14
11 -3 20 -12 20 -19z m-22 -32 c6 -18 -28 -14 -34 3 -4 8 -11 12 -17 8 -6 -3
-7 -1 -3 5 8 13 48 1 54 -16z m29 -14 c-3 -8 -6 -5 -6 6 -1 11 2 17 5 13 3 -3
4 -12 1 -19z m-27 -27 c0 -16 -14 -20 -27 -10 -19 17 -16 28 7 22 11 -3 20 -9
20 -12z m-110 5 c0 -2 -7 -7 -16 -10 -8 -3 -12 -2 -9 4 6 10 25 14 25 6z m60
-41 c0 -8 -7 -15 -15 -15 -8 0 -15 7 -15 15 0 8 7 15 15 15 8 0 15 -7 15 -15z"/>
<path d="M1195 2343 c-18 -42 -207 -231 -265 -263 -19 -11 -66 -36 -105 -55
-87 -42 -105 -57 -105 -83 0 -22 58 -78 97 -93 38 -14 58 -11 143 22 130 50
300 172 336 240 34 66 -1 170 -59 177 -25 3 -26 5 -20 48 7 54 -2 57 -22 7z
m-405 -423 c12 -8 11 -10 -7 -10 -12 0 -25 5 -28 10 -8 13 15 13 35 0z"/>
<path d="M720 2359 c0 -5 11 -9 25 -9 14 0 25 2 25 4 0 2 -11 6 -25 8 -14 3
-25 1 -25 -3z"/>
<path d="M2628 2363 c6 -2 18 -2 25 0 6 3 1 5 -13 5 -14 0 -19 -2 -12 -5z"/>
<path d="M848 2348 c14 -17 1 -35 -18 -23 -5 3 -10 1 -10 -4 0 -6 6 -11 13
-11 17 0 52 38 44 47 -4 3 -7 1 -7 -7 0 -10 -4 -10 -17 1 -16 13 -17 12 -5 -3z"/>
<path d="M771 2333 c-1 -17 16 -25 25 -12 4 7 3 9 -4 5 -5 -3 -13 0 -15 6 -4
9 -6 10 -6 1z"/>
<path d="M1466 2321 c-16 -17 -15 -18 11 -17 18 1 27 -4 25 -12 -1 -8 2 -11 8
-7 16 10 12 23 -10 30 -11 4 -18 11 -15 16 10 15 -1 10 -19 -10z"/>
<path d="M1420 2310 c0 -5 5 -10 11 -10 5 0 7 5 4 10 -3 6 -8 10 -11 10 -2 0
-4 -4 -4 -10z"/>
<path d="M938 2187 c-67 -62 -123 -118 -126 -126 -5 -14 8 -4 150 122 78 69
120 117 103 117 -3 0 -61 -51 -127 -113z"/>
<path d="M1419 2253 c5 -32 11 -38 31 -40 24 -1 24 -1 2 4 -21 4 -23 9 -20 39
2 21 0 34 -7 34 -8 0 -10 -13 -6 -37z"/>
<path d="M6222 2250 c0 -14 2 -19 5 -12 2 6 2 18 0 25 -3 6 -5 1 -5 -13z"/>
<path d="M1491 2238 c-14 -23 -14 -23 8 -4 22 20 25 26 13 26 -4 0 -13 -10
-21 -22z"/>
<path d="M2770 2247 c-36 -18 -48 -59 -27 -91 14 -21 21 -24 40 -17 15 6 29 4
42 -5 29 -21 65 -18 65 6 0 15 7 20 25 20 23 0 24 2 13 26 -9 19 -9 30 0 44 9
15 7 19 -11 24 -38 10 -121 6 -147 -7z m145 -39 c2 -33 -1 -38 -24 -42 -55
-12 -141 -17 -142 -9 0 4 -2 16 -4 27 -9 48 22 66 109 63 l58 -2 3 -37z m-35
-68 c0 -5 -6 -10 -14 -10 -8 0 -18 5 -21 10 -3 6 3 10 14 10 12 0 21 -4 21
-10z"/>
<path d="M1861 2214 c0 -11 3 -14 6 -6 3 7 2 16 -1 19 -3 4 -6 -2 -5 -13z"/>
<path d="M6232 2130 c-3 -141 -5 -160 -15 -153 -6 3 -7 1 -3 -5 4 -7 2 -12 -3
-12 -6 0 -10 -4 -8 -9 4 -15 -63 -91 -97 -108 -17 -9 -62 -20 -101 -23 l-70
-7 60 -1 c103 -2 185 53 241 164 24 47 26 59 20 116 -14 126 -22 139 -24 38z"/>
<path d="M3080 2188 c0 -24 6 -29 47 -41 46 -13 55 -22 67 -60 5 -15 13 -17
48 -12 41 6 43 5 44 -20 3 -36 7 -38 42 -18 30 17 32 17 84 -6 98 -42 117 -45
149 -22 35 26 54 26 79 1 24 -24 47 -25 71 -4 16 14 24 15 61 4 76 -21 95 -22
126 -6 17 9 40 16 52 16 11 0 28 9 38 21 26 31 66 49 110 49 47 0 72 22 55 48
-14 22 -23 21 -168 -18 -152 -40 -345 -52 -440 -27 -33 9 -116 23 -185 32
-117 15 -199 32 -244 51 -15 5 -17 4 -11 -6 5 -9 4 -11 -4 -6 -6 4 -9 11 -7
15 3 4 1 13 -5 21 -6 11 -9 8 -9 -12z m1060 -42 c0 -2 3 -11 6 -20 3 -9 1 -16
-6 -16 -6 0 -9 4 -5 9 3 5 1 12 -5 16 -5 3 -10 -3 -10 -13 0 -19 -9 -22 -132
-34 -13 -2 -17 -8 -13 -23 3 -11 2 -14 -1 -7 -3 6 -12 12 -21 12 -8 0 -13 6
-11 12 5 14 198 76 198 64z m-910 -41 c0 -8 -4 -15 -10 -15 -5 0 -7 7 -4 15 4
8 8 15 10 15 2 0 4 -7 4 -15z m127 2 c-4 -10 2 -13 21 -10 21 4 24 2 12 -6
-12 -9 -11 -11 10 -12 19 -1 15 -3 -14 -10 -21 -5 -41 -7 -44 -4 -3 3 3 5 14
5 18 1 18 1 1 11 -9 5 -21 8 -26 5 -5 -4 -7 3 -4 14 3 11 12 20 20 20 9 0 13
-6 10 -13z m168 -42 c0 -28 -29 -25 -33 3 -3 19 0 23 15 20 10 -2 18 -12 18
-23z m395 16 c0 -6 -5 -13 -10 -16 -6 -4 -8 -11 -5 -16 3 -5 0 -6 -8 -3 -17 6
-50 -23 -42 -37 10 -15 -11 -10 -25 5 -6 8 -21 16 -33 18 -29 4 -28 28 1 39
17 6 22 5 22 -7 0 -8 4 -12 10 -9 5 3 20 8 32 10 12 3 26 9 32 15 13 13 26 13
26 1z m-607 -16 c4 -8 2 -17 -3 -20 -6 -4 -10 3 -10 14 0 25 6 27 13 6z m377
-21 c0 -8 5 -12 10 -9 16 10 11 -1 -7 -16 -11 -10 -14 -10 -9 -1 4 7 1 12 -8
13 -30 3 -34 4 -43 13 -4 5 -3 6 4 2 6 -3 14 -2 18 4 10 16 35 12 35 -6z"/>
<path d="M4095 2200 c-11 -19 -141 -51 -241 -60 l-99 -8 125 3 c131 3 223 23
234 50 6 17 -10 30 -19 15z"/>
<path d="M2058 2193 c7 -3 16 -2 19 1 4 3 -2 6 -13 5 -11 0 -14 -3 -6 -6z"/>
<path d="M935 2128 c-34 -34 -47 -52 -30 -40 39 26 112 102 99 102 -5 0 -36
-28 -69 -62z"/>
<path d="M1855 2170 c-24 -26 -20 -126 8 -175 83 -147 346 -183 489 -65 41 34
88 120 88 161 0 42 -34 50 -175 39 l-120 -9 125 4 c121 4 178 -5 135 -21 -34
-14 -238 -10 -282 5 -23 8 -40 18 -37 22 3 5 -3 9 -13 9 -10 0 -60 11 -110 24
-87 22 -93 22 -108 6z"/>
<path d="M2410 2160 c-9 -6 -10 -10 -3 -10 6 0 15 5 18 10 8 12 4 12 -15 0z"/>
<path d="M4440 2140 c-8 -5 -32 -10 -54 -10 -33 0 -37 -2 -26 -15 7 -8 18 -15
24 -15 6 0 4 5 -4 10 -12 8 -9 10 12 10 14 0 33 3 41 6 8 3 17 -2 21 -12 4
-12 2 -15 -9 -10 -8 3 -15 1 -15 -5 0 -7 10 -9 27 -4 21 5 24 4 16 -7 -16 -21
-11 -44 10 -45 19 -2 19 -1 1 11 -15 11 -16 17 -6 29 11 13 10 17 -1 24 -8 4
-16 16 -18 25 -3 13 -8 15 -19 8z"/>
<path d="M2343 2113 c9 -2 23 -2 30 0 6 3 -1 5 -18 5 -16 0 -22 -2 -12 -5z"/>
<path d="M4945 2101 c-30 -13 -52 -35 -84 -85 -38 -58 -43 -71 -38 -107 6 -49
49 -107 98 -131 71 -37 164 -13 238 61 71 71 74 154 7 212 -14 13 -26 33 -26
46 0 27 -7 29 -30 8 -14 -13 -22 -13 -64 0 -60 18 -52 18 -101 -4z"/>
<path d="M4380 2075 c-10 -13 -9 -15 8 -15 11 0 22 -8 25 -20 4 -15 13 -20 34
-19 l28 2 -27 4 c-16 2 -29 11 -29 19 -1 8 -2 19 -3 26 -2 18 -22 20 -36 3z"/>
<path d="M4612 2050 c0 -14 2 -19 5 -12 2 6 2 18 0 25 -3 6 -5 1 -5 -13z"/>
<path d="M39 2017 l-34 -23 -3 -99 c-3 -115 3 -125 75 -125 55 0 102 40 133
112 19 44 21 57 11 89 -20 67 -115 91 -182 46z m121 -63 c0 -8 -5 -12 -10 -9
-6 4 -8 11 -5 16 9 14 15 11 15 -7z"/>
<path d="M2673 2006 c-9 -20 -13 -42 -8 -53 7 -17 8 -17 17 4 6 12 18 24 27
27 9 4 27 13 41 21 l24 14 -28 10 c-43 17 -55 13 -73 -23z"/>
<path d="M551 2014 c0 -11 3 -14 6 -6 3 7 2 16 -1 19 -3 4 -6 -2 -5 -13z"/>
<path d="M4607 1945 c-4 -8 -2 -17 3 -20 6 -4 10 3 10 14 0 25 -6 27 -13 6z"/>
<path d="M5315 1930 c-13 -26 -14 -35 -4 -44 9 -8 10 -8 5 1 -4 7 1 24 10 38
9 14 14 28 11 31 -3 3 -13 -9 -22 -26z"/>
<path d="M1771 1946 c2 -2 18 -6 34 -10 22 -5 26 -4 15 4 -14 9 -59 15 -49 6z"/>
<path d="M5344 1925 c-3 -13 -4 -30 -1 -37 3 -7 6 -2 6 13 1 14 6 30 13 37 9
9 9 12 0 12 -6 0 -14 -11 -18 -25z"/>
<path d="M1738 1933 c7 -3 16 -2 19 1 4 3 -2 6 -13 5 -11 0 -14 -3 -6 -6z"/>
<path d="M5385 1930 c3 -6 12 -10 20 -10 7 0 16 -5 18 -10 3 -6 4 -5 3 1 -1 7
-12 16 -25 20 -14 6 -20 5 -16 -1z"/>
<path d="M1840 1924 c0 -6 7 -17 15 -24 23 -19 19 -79 -7 -109 l-23 -26 28 24
c34 30 37 87 7 122 -10 13 -19 19 -20 13z"/>
<path d="M1692 1890 c0 -19 2 -27 5 -17 2 9 2 25 0 35 -3 9 -5 1 -5 -18z"/>
<path d="M2778 1875 c30 -43 75 -94 63 -70 -6 11 -27 38 -47 60 -25 27 -30 31
-16 10z"/>
<path d="M4370 1844 c-32 -45 -33 -46 -81 -42 -27 1 -49 0 -49 -4 0 -5 -9 -8
-21 -8 -33 0 -89 -62 -89 -99 0 -40 22 -83 56 -110 52 -41 173 -18 201 39 21
42 16 95 -12 128 -28 33 -26 48 12 100 14 18 23 35 21 38 -3 2 -19 -17 -38
-42z"/>
<path d="M1325 1869 c-4 -6 -5 -12 -2 -15 2 -3 7 2 10 11 7 17 1 20 -8 4z"/>
<path d="M2425 1861 c-49 -22 -64 -40 -71 -83 -8 -49 13 -65 68 -49 54 17 98
61 98 98 0 54 -29 65 -95 34z"/>
<path d="M2540 1866 c0 -7 8 -20 18 -27 15 -13 16 -12 4 3 -8 9 -11 22 -7 28
3 5 1 10 -4 10 -6 0 -11 -6 -11 -14z"/>
<path d="M5415 1861 c4 -14 3 -21 -2 -18 -6 4 -8 -4 -5 -18 2 -14 7 -27 11
-29 10 -6 7 72 -3 81 -5 4 -5 -3 -1 -16z"/>
<path d="M5315 1840 c-4 -17 -5 -34 -2 -36 2 -3 7 10 11 27 8 42 0 50 -9 9z"/>
<path d="M1681 1834 c0 -11 3 -14 6 -6 3 7 2 16 -1 19 -3 4 -6 -2 -5 -13z"/>
<path d="M2673 1773 c7 -97 28 -159 72 -210 61 -72 196 -110 282 -80 26 9 61
13 88 9 45 -5 50 -1 46 35 -1 7 3 22 9 34 7 11 10 23 7 25 -7 7 -70 -29 -85
-48 -28 -38 -137 -11 -246 62 -82 55 -128 116 -153 200 -8 28 -17 50 -20 50
-3 0 -3 -35 0 -77z m487 -213 c0 -5 -5 -10 -11 -10 -5 0 -7 5 -4 10 3 6 8 10
11 10 2 0 4 -4 4 -10z"/>
<path d="M503 1828 c-13 -6 -23 -14 -23 -19 0 -4 -9 -5 -20 -2 -14 4 -20 0
-20 -10 0 -17 93 -67 124 -67 12 1 -3 9 -32 19 -30 10 -61 26 -70 36 -16 17
-16 17 1 12 11 -4 25 1 38 14 17 17 23 19 30 8 7 -11 9 -10 9 4 0 19 -6 20
-37 5z"/>
<path d="M5346 1829 c2 -4 -2 -9 -8 -11 -7 -3 4 -4 24 -4 45 1 50 12 9 18 -17
2 -28 1 -25 -3z"/>
<path d="M1257 1813 c-4 -3 -7 -11 -7 -17 0 -6 5 -5 12 2 6 6 9 14 7 17 -3 3
-9 2 -12 -2z"/>
<path d="M3390 1794 c-8 -16 -15 -32 -17 -35 -1 -3 4 -6 11 -6 8 0 11 8 8 19
-2 10 0 18 6 18 14 0 23 -27 15 -47 -9 -26 2 -13 20 23 16 30 16 32 -2 27 -13
-3 -20 1 -23 13 -2 13 -6 11 -18 -12z"/>
<path d="M1673 1795 c-8 -22 1 -27 28 -15 l24 11 -23 -5 c-17 -3 -22 -1 -18
10 3 8 3 14 0 14 -2 0 -7 -7 -11 -15z"/>
<path d="M4597 1803 c-4 -3 -7 -11 -7 -17 0 -6 5 -5 12 2 6 6 9 14 7 17 -3 3
-9 2 -12 -2z"/>
<path d="M550 1791 c23 -12 86 -23 75 -12 -6 4 -28 11 -50 14 -23 4 -34 3 -25
-2z"/>
<path d="M1330 1784 c0 -8 5 -12 10 -9 6 4 8 11 5 16 -9 14 -15 11 -15 -7z"/>
<path d="M3917 1786 c-3 -8 -2 -18 3 -21 13 -8 24 15 12 27 -6 6 -11 4 -15 -6z"/>
<path d="M2860 1776 c0 -2 8 -10 18 -17 15 -13 16 -12 3 4 -13 16 -21 21 -21
13z"/>
<path d="M566 1758 c3 -4 11 -5 19 -1 21 7 19 12 -4 10 -11 0 -18 -5 -15 -9z"/>
<path d="M1733 1735 c6 -19 11 -34 12 -32 1 1 9 16 17 33 12 24 12 31 2 31 -7
0 -11 -3 -9 -7 2 -3 0 -12 -6 -20 -7 -12 -9 -10 -9 8 0 12 -4 22 -9 22 -5 0
-4 -15 2 -35z"/>
<path d="M1031 1712 c-1 -37 2 -44 26 -53 14 -5 34 -8 42 -6 11 3 9 5 -5 6
-27 1 -39 16 -52 61 l-10 35 -1 -43z"/>
<path d="M1276 1734 c-4 -9 -4 -19 -1 -22 2 -3 7 3 11 12 4 9 4 19 1 22 -2 3
-7 -3 -11 -12z"/>
<path d="M1960 1740 c-13 -9 -13 -10 0 -10 8 0 22 5 30 10 13 9 13 10 0 10 -8
0 -22 -5 -30 -10z"/>
<path d="M3337 1729 c-3 -11 -15 -23 -26 -26 -20 -5 -20 -5 1 -34 30 -39 98
-64 98 -34 0 8 4 15 10 15 5 0 16 13 24 29 15 28 15 29 -5 24 -16 -4 -18 -8
-7 -14 10 -7 11 -9 0 -9 -8 0 -10 -5 -6 -12 5 -8 2 -9 -10 -5 -9 4 -15 3 -12
-1 9 -16 -10 -31 -32 -25 -12 3 -19 9 -16 14 3 5 -2 9 -11 9 -11 0 -15 5 -11
15 3 8 0 15 -6 15 -6 0 -1 11 11 24 12 13 18 27 13 30 -5 3 -12 -4 -15 -15z"/>
<path d="M3786 1729 c-14 -20 -19 -22 -36 -11 -17 10 -20 10 -20 -6 0 -23 -19
-42 -42 -42 -25 0 -22 -12 10 -43 21 -20 31 -24 42 -16 13 9 13 10 -1 6 -10
-3 -26 5 -40 20 -15 16 -18 24 -9 21 8 -3 24 7 35 21 13 16 29 26 45 25 14 0
31 4 39 10 8 6 17 10 20 8 3 -2 7 2 10 9 2 7 -1 9 -9 4 -7 -4 -16 -2 -20 5 -5
9 -12 5 -24 -11z m24 -3 c0 -3 -4 -8 -10 -11 -5 -3 -10 -1 -10 4 0 6 5 11 10
11 6 0 10 -2 10 -4z"/>
<path d="M1993 1718 c-52 -55 -50 -119 5 -172 89 -84 205 -24 189 98 -8 60
-43 89 -114 94 -51 3 -61 1 -80 -20z"/>
<path d="M2928 1710 c18 -17 38 -30 45 -30 6 1 0 7 -14 15 -15 8 -29 21 -33
30 -3 8 -11 15 -18 15 -7 0 2 -14 20 -30z"/>
<path d="M6171 1721 c-10 -7 -10 -10 -1 -16 6 -4 16 -3 22 3 13 13 -4 23 -21
13z"/>
<path d="M5570 1691 c0 -25 6 -27 13 -6 4 8 2 17 -3 20 -6 4 -10 -3 -10 -14z"/>
<path d="M6216 1701 c-4 -5 -2 -12 3 -15 5 -4 12 -2 15 3 4 5 2 12 -3 15 -5 4
-12 2 -15 -3z"/>
<path d="M3809 1683 c-13 -17 -13 -17 6 -3 11 8 22 16 24 17 2 2 0 3 -6 3 -6
0 -17 -8 -24 -17z"/>
<path d="M614 1676 c-11 -8 -28 -32 -38 -53 l-17 -38 -88 0 c-81 0 -90 -2
-125 -29 -130 -98 -52 -326 119 -352 126 -18 254 62 272 171 8 48 -21 119 -58
146 l-30 21 20 22 c61 65 14 160 -55 112z m66 -26 c23 -43 -19 -108 -62 -96
-55 14 -59 37 -17 90 25 31 64 34 79 6z"/>
<path d="M968 1666 c-10 -7 -18 -24 -18 -37 0 -26 16 -15 22 16 2 11 10 19 17
17 7 -1 10 2 6 8 -8 12 -6 12 -27 -4z"/>
<path d="M6075 1671 c-6 -11 9 -23 19 -14 9 9 7 23 -3 23 -6 0 -12 -4 -16 -9z"/>
<path d="M2996 1661 c-7 -10 28 -43 37 -35 4 4 9 -1 13 -10 7 -18 24 -22 24
-6 0 6 -14 17 -30 24 -17 7 -28 15 -25 18 4 3 2 9 -4 12 -5 4 -12 2 -15 -3z"/>
<path d="M1537 1588 c-29 -40 -75 -104 -102 -143 -61 -88 -59 -86 -81 -90 -11
-1 -18 -9 -16 -16 2 -8 1 -11 -3 -7 -3 3 -25 -14 -47 -38 -22 -24 -57 -54 -77
-66 -61 -36 -92 -69 -80 -85 22 -25 66 -13 167 47 174 103 258 199 312 356 25
72 25 91 0 104 -17 9 -26 2 -73 -62z"/>
<path d="M6234 1637 c-8 -21 2 -35 16 -21 5 5 6 15 0 24 -8 12 -10 12 -16 -3z"/>
<path d="M3770 1630 c-13 -8 -12 -10 3 -10 9 0 17 5 17 10 0 12 -1 12 -20 0z"/>
<path d="M6021 1626 c-8 -9 -11 -19 -7 -23 9 -9 29 13 24 27 -2 8 -8 7 -17 -4z"/>
<path d="M978 1618 c-7 -21 3 -48 19 -48 10 0 12 6 8 23 -10 30 -22 42 -27 25z"/>
<path d="M4860 1623 c0 -6 8 -17 18 -24 16 -13 16 -13 2 6 -8 11 -16 22 -17
24 -2 2 -3 0 -3 -6z"/>
<path d="M5190 1614 c-14 -7 -33 -14 -43 -14 -32 0 -55 -19 -67 -56 -7 -19
-10 -37 -8 -40 3 -2 10 14 17 35 6 22 19 42 29 45 36 10 87 20 95 18 4 -1 7 5
7 13 0 8 -1 15 -2 14 -2 -1 -14 -7 -28 -15z"/>
<path d="M6120 1619 c0 -5 5 -7 10 -4 6 3 10 8 10 11 0 2 -4 4 -10 4 -5 0 -10
-5 -10 -11z"/>
<path d="M1032 1588 c2 -11 11 -22 20 -24 14 -2 15 2 6 22 -14 30 -30 31 -26
2z"/>
<path d="M5290 1600 c-12 -8 -10 -9 7 -7 12 2 26 6 29 10 11 11 -19 8 -36 -3z"/>
<path d="M6196 1594 c-4 -10 -1 -14 6 -12 15 5 23 28 10 28 -5 0 -13 -7 -16
-16z"/>
<path d="M90 1586 c-31 -11 -32 -13 -12 -18 14 -4 20 -2 15 5 -4 6 1 8 14 5
12 -3 20 0 20 8 0 8 -1 14 -1 13 -1 0 -17 -6 -36 -13z"/>
<path d="M140 1585 c0 -8 5 -15 11 -15 6 0 17 -6 25 -14 11 -11 11 -16 1 -19
-7 -3 -5 -6 6 -6 23 -1 21 9 -8 42 -27 31 -35 33 -35 12z"/>
<path d="M2367 1593 c-4 -3 -7 -30 -7 -59 0 -48 -2 -52 -27 -59 -44 -11 -80
-42 -97 -86 -47 -116 68 -279 196 -279 82 0 182 58 217 127 19 38 13 125 -12
173 -28 53 -90 90 -152 90 -38 0 -44 3 -50 28 -13 54 -47 87 -68 65z m42 -50
c7 -26 7 -41 -1 -50 -16 -20 -38 3 -38 42 0 57 24 62 39 8z m191 -182 c-1 -12
-6 -10 -20 8 -11 12 -17 28 -13 34 8 12 33 -20 33 -42z m-280 -53 c0 -32 -3
-39 -10 -28 -13 20 -13 70 0 70 6 0 10 -19 10 -42z m254 -21 c15 -24 -3 -35
-20 -13 -8 11 -14 24 -14 29 0 13 22 3 34 -16z m-74 -49 c0 -15 -19 -8 -29 11
-14 25 0 37 16 15 7 -10 13 -21 13 -26z"/>
<path d="M5197 1583 c-11 -11 -8 -33 5 -33 6 0 8 3 5 7 -4 3 -2 12 4 20 11 13
-2 19 -14 6z"/>
<path d="M5238 1583 c6 -2 18 -2 25 0 6 3 1 5 -13 5 -14 0 -19 -2 -12 -5z"/>
<path d="M920 1565 c-13 -16 -10 -51 5 -47 6 1 10 16 10 32 1 35 1 34 -15 15z"/>
<path d="M3472 1552 c-29 -15 -49 -31 -45 -35 4 -5 -1 -5 -11 -1 -15 6 -17 4
-11 -6 6 -9 4 -11 -4 -5 -15 8 -57 -28 -77 -67 -8 -15 -14 -43 -14 -63 0 -44
-1 -44 155 28 143 66 165 81 165 116 0 64 -70 78 -158 33z m133 8 c3 -5 -1
-10 -9 -10 -9 0 -16 -4 -16 -9 0 -5 9 -7 20 -4 15 4 20 0 20 -15 0 -22 -49
-65 -87 -77 -19 -5 -23 -3 -23 16 0 12 -8 28 -17 35 -17 13 -17 15 2 30 19 16
19 16 -10 10 l-30 -6 35 20 c37 20 105 27 115 10z m-242 -94 c-10 -13 -20 -22
-22 -20 -4 4 29 44 36 44 2 0 -4 -11 -14 -24z m77 4 c0 -4 -8 -11 -17 -14 -15
-6 -15 -9 -3 -17 12 -9 12 -10 -3 -5 -10 3 -26 -3 -38 -15 -17 -17 -18 -23 -8
-37 11 -15 11 -15 -1 -4 -12 10 -17 9 -31 -10 -17 -22 -17 -22 -17 15 0 20 4
40 9 43 5 3 6 -3 2 -13 -4 -10 9 -1 29 20 19 20 41 37 47 37 7 0 9 4 6 10 -3
6 1 7 9 4 9 -3 16 -10 16 -14z m51 -43 c-10 -9 -11 -8 -5 6 3 10 9 15 12 12 3
-3 0 -11 -7 -18z"/>
<path d="M3553 1523 c-7 -15 -13 -36 -12 -47 0 -14 2 -16 6 -6 2 8 9 25 15 37
6 11 9 26 7 32 -2 6 -10 -2 -16 -16z"/>
<path d="M4045 1570 c-3 -5 0 -8 7 -5 38 14 75 -73 48 -115 -7 -11 -15 -2 -34
40 -14 30 -26 48 -26 40 0 -8 9 -34 20 -57 l19 -43 -48 0 c-59 0 -142 -40
-173 -83 -19 -27 -23 -45 -23 -114 0 -74 3 -85 30 -125 41 -57 137 -108 205
-108 115 0 232 74 251 158 10 45 -3 158 -22 193 -13 25 -57 47 -110 55 -69 10
-74 16 -74 77 0 40 -5 61 -19 76 -21 23 -41 27 -51 11z"/>
<path d="M5294 1565 c-4 -8 -9 -13 -13 -11 -18 12 -7 -41 12 -57 13 -12 16
-17 6 -14 -9 3 -16 -1 -16 -8 0 -10 5 -11 18 -4 29 15 30 26 4 33 -29 7 -31
18 -9 51 9 14 13 25 10 25 -4 0 -9 -7 -12 -15z"/>
<path d="M5118 1563 c7 -3 16 -2 19 1 4 3 -2 6 -13 5 -11 0 -14 -3 -6 -6z"/>
<path d="M1401 1536 c-13 -13 -21 -29 -17 -34 3 -5 -1 -18 -9 -28 -8 -10 -15
-14 -15 -8 0 5 5 15 12 22 7 7 9 12 5 12 -4 0 -34 -37 -68 -82 -105 -142 -117
-187 -25 -100 39 37 49 52 39 56 -21 9 -25 7 -17 -6 4 -7 3 -8 -4 -4 -6 4 -9
13 -6 21 4 8 11 12 17 8 5 -3 7 -2 4 4 -3 5 5 22 18 39 13 16 24 24 25 17 0
-6 -8 -19 -17 -29 -22 -21 -25 -44 -7 -44 8 0 14 -6 14 -12 0 -22 26 25 55 98
32 83 30 107 -4 70z m-16 -88 c-19 -55 -26 -70 -30 -66 -6 5 22 78 30 78 2 0
2 -6 0 -12z m-92 -92 c3 -7 -10 -28 -30 -47 -28 -27 -33 -29 -24 -11 7 13 19
26 27 29 7 3 11 9 8 14 -5 8 3 29 11 29 1 0 5 -6 8 -14z"/>
<path d="M5550 1546 c0 -9 5 -16 10 -16 6 0 10 4 10 9 0 6 -4 13 -10 16 -5 3
-10 -1 -10 -9z"/>
<path d="M6157 1536 c-82 -30 -145 -113 -179 -235 -32 -116 -18 -186 44 -212
48 -20 101 3 174 75 l64 62 0 157 c0 119 -3 157 -12 157 -7 0 -22 2 -33 5 -11
3 -37 -2 -58 -9z m43 -55 c0 -10 -7 -24 -15 -31 -13 -10 -15 -9 -15 12 0 14 3
28 7 31 12 13 23 7 23 -12z m-39 -154 c-8 -8 -11 -2 -11 19 0 40 14 54 18 19
2 -15 -1 -32 -7 -38z m-55 -24 c-11 -11 -19 6 -11 24 8 17 8 17 12 0 3 -10 2
-21 -1 -24z m-56 -12 c0 -6 -4 -13 -10 -16 -5 -3 -10 1 -10 9 0 9 5 16 10 16
6 0 10 -4 10 -9z m108 -28 c-4 -22 -22 -20 -26 1 -2 10 3 16 13 16 10 0 15 -7
13 -17z m-128 -38 c0 -8 -4 -15 -10 -15 -5 0 -10 7 -10 15 0 8 5 15 10 15 6 0
10 -7 10 -15z m70 -26 c0 -5 -4 -9 -10 -9 -5 0 -10 7 -10 16 0 8 5 12 10 9 6
-3 10 -10 10 -16z"/>
<path d="M62 1491 c-7 -29 -6 -38 2 -35 10 4 22 74 12 74 -2 0 -8 -18 -14 -39z"/>
<path d="M148 1500 c-3 -16 -1 -30 4 -30 4 0 8 14 8 30 0 17 -2 30 -4 30 -2 0
-6 -13 -8 -30z"/>
<path d="M990 1510 c0 -11 7 -23 15 -26 8 -4 15 -13 15 -22 0 -8 3 -13 6 -9 8
8 -15 77 -27 77 -5 0 -9 -9 -9 -20z"/>
<path d="M1026 1507 c3 -10 9 -15 12 -12 3 3 0 11 -7 18 -10 9 -11 8 -5 -6z"/>
<path d="M6060 1509 c0 -5 5 -7 10 -4 6 3 10 8 10 11 0 2 -4 4 -10 4 -5 0 -10
-5 -10 -11z"/>
<path d="M5940 1500 c0 -5 5 -10 10 -10 6 0 10 5 10 10 0 6 -4 10 -10 10 -5 0
-10 -4 -10 -10z"/>
<path d="M954 1460 c4 -23 2 -29 -7 -24 -6 4 -8 3 -4 -1 26 -29 47 -2 31 39
-11 29 -27 17 -20 -14z"/>
<path d="M1686 1468 c-9 -12 -16 -27 -16 -33 1 -5 8 2 16 18 8 15 19 27 25 27
15 0 53 -21 61 -34 5 -8 8 -7 8 1 0 12 -49 43 -69 43 -5 0 -17 -10 -25 -22z"/>
<path d="M4796 1469 l-27 -21 92 -92 c89 -89 249 -289 283 -354 20 -38 33 -41
46 -7 14 38 2 79 -57 198 -42 85 -69 124 -129 186 -104 110 -155 132 -208 90z"/>
<path d="M5080 1481 c0 -5 5 -13 10 -16 6 -3 10 -2 10 4 0 5 -4 13 -10 16 -5
3 -10 2 -10 -4z"/>
<path d="M3710 1471 c0 -5 8 -11 18 -13 10 -3 19 0 19 6 0 7 -9 13 -19 13 -10
1 -18 -2 -18 -6z"/>
<path d="M90 1461 c0 -6 4 -13 10 -16 6 -3 7 1 4 9 -7 18 -14 21 -14 7z"/>
<path d="M5907 1463 c-4 -3 -7 -11 -7 -17 0 -6 5 -5 12 2 6 6 9 14 7 17 -3 3
-9 2 -12 -2z"/>
<path d="M5119 1428 c30 -34 70 -36 117 -7 19 11 34 23 34 26 0 2 -15 -5 -34
-16 -43 -27 -83 -27 -115 2 l-26 22 24 -27z"/>
<path d="M4436 1424 c-4 -10 -1 -14 6 -12 15 5 23 28 10 28 -5 0 -13 -7 -16
-16z"/>
<path d="M1691 1403 c-1 -36 1 -38 30 -23 13 8 25 7 39 0 17 -9 20 -8 20 7 0
10 -5 25 -11 33 -8 12 -9 9 -4 -9 6 -20 4 -23 -10 -18 -9 4 -25 2 -35 -3 -16
-8 -19 -6 -23 18 -4 25 -4 25 -6 -5z"/>
<path d="M1001 1402 c-1 -8 -6 -10 -13 -6 -10 5 -10 4 -1 -6 15 -16 28 -8 20
12 -4 11 -6 11 -6 0z"/>
<path d="M3002 1340 c0 -14 2 -19 5 -12 2 6 2 18 0 25 -3 6 -5 1 -5 -13z"/>
<path d="M3030 1342 c-13 -14 -12 -15 3 -9 12 5 17 1 17 -13 0 -14 7 -20 23
-20 21 -1 22 -1 3 -15 -13 -9 -15 -15 -7 -15 18 0 40 31 34 46 -2 6 -12 10
-22 7 -11 -3 -21 3 -27 15 -8 19 -10 19 -24 4z"/>
<path d="M5630 1325 c0 -8 5 -15 10 -15 6 0 10 7 10 15 0 8 -4 15 -10 15 -5 0
-10 -7 -10 -15z"/>
<path d="M5880 1330 c0 -5 5 -10 10 -10 6 0 10 5 10 10 0 6 -4 10 -10 10 -5 0
-10 -4 -10 -10z"/>
<path d="M4600 1315 c0 -9 -9 -15 -25 -15 -55 0 -134 -110 -105 -145 44 -54
164 41 144 114 -4 14 -6 34 -5 44 1 9 0 17 -3 17 -3 0 -6 -7 -6 -15z"/>
<path d="M5930 1319 c0 -5 5 -7 10 -4 6 3 10 8 10 11 0 2 -4 4 -10 4 -5 0 -10
-5 -10 -11z"/>
<path d="M3010 1298 c0 -12 7 -18 23 -17 15 0 17 2 7 6 -8 3 -18 11 -22 17 -5
7 -8 4 -8 -6z"/>
<path d="M4625 1301 c-3 -5 -1 -12 5 -16 5 -3 10 1 10 9 0 18 -6 21 -15 7z"/>
<path d="M0 1115 l0 -175 28 0 c34 0 65 30 87 84 31 73 -5 176 -61 176 -27 0
-49 40 -41 72 3 10 1 18 -4 18 -5 0 -9 -77 -9 -175z"/>
<path d="M5324 1261 c0 -9 8 -18 18 -18 10 -1 15 3 12 12 -8 21 -30 25 -30 6z"/>
<path d="M5890 1270 c0 -5 4 -10 9 -10 6 0 13 5 16 10 3 6 -1 10 -9 10 -9 0
-16 -4 -16 -10z"/>
<path d="M3100 1233 c-71 -11 -135 -53 -181 -116 -30 -42 -37 -85 -17 -105 9
-9 7 -17 -8 -33 -15 -17 -11 -16 21 6 l40 27 200 -6 c110 -4 220 -10 245 -14
l45 -8 -53 -7 c-36 -4 -73 -1 -110 8 -85 22 -209 20 -250 -5 -18 -11 -50 -20
-71 -20 -48 0 -58 -13 -56 -74 2 -61 20 -78 119 -109 131 -41 397 -25 449 28
8 8 17 12 20 9 3 -4 28 15 56 41 45 42 49 50 39 68 -6 12 -22 30 -35 40 -25
20 -31 39 -9 31 24 -9 39 32 26 71 -37 111 -282 199 -470 168z m100 -253 c-8
-5 -23 -10 -32 -10 -10 0 -33 -14 -53 -31 -21 -18 -33 -24 -29 -15 4 9 3 16
-2 15 -5 -1 -19 -1 -32 0 -33 1 -23 24 17 37 44 14 152 18 131 4z m93 -16 c43
-8 44 -10 17 -44 -12 -15 -18 -18 -14 -7 5 13 1 17 -15 17 -23 0 -29 15 -8 23
6 3 -2 6 -20 6 -31 1 -63 -20 -63 -41 0 -6 -6 -6 -15 2 -12 10 -15 10 -15 -1
0 -11 -2 -11 -10 1 -22 36 52 59 143 44z m242 -4 c3 -5 -5 -7 -17 -5 -21 4
-21 2 6 -20 l29 -23 -34 -44 c-33 -42 -25 -40 36 11 17 15 12 7 -11 -16 -28
-28 -48 -41 -58 -37 -9 4 -18 0 -22 -9 -3 -9 -12 -13 -21 -10 -12 5 -14 3 -8
-7 6 -10 4 -12 -8 -7 -20 8 -79 -2 -72 -12 2 -4 -10 -5 -27 -3 -17 3 -28 1
-25 -4 6 -11 -160 -10 -223 1 -57 9 -145 42 -158 58 -5 7 -6 23 -2 37 l7 25
10 -25 10 -25 7 33 c7 29 26 46 26 22 0 -5 8 -10 18 -11 15 0 14 -1 -3 -8 -18
-7 -18 -8 -1 -18 10 -5 17 -14 17 -19 -1 -5 11 -9 27 -9 21 0 30 7 42 32 19
42 34 37 34 -13 l1 -39 125 1 c145 2 205 16 205 51 0 12 3 25 8 29 4 4 7 11 7
15 0 10 -73 17 -86 8 -7 -6 -10 -1 -9 14 1 18 9 23 41 27 67 10 123 10 129 0z
m-578 -16 c-3 -3 -12 -4 -19 -1 -8 3 -5 6 6 6 11 1 17 -2 13 -5z m608 -4 c3
-5 1 -10 -4 -10 -6 0 -11 5 -11 10 0 6 2 10 4 10 3 0 8 -4 11 -10z m-495 -51
c0 -5 -4 -9 -10 -9 -5 0 -10 -5 -10 -11 0 -5 6 -7 13 -3 6 4 8 3 4 -1 -10 -11
-37 -16 -38 -7 0 4 -2 14 -4 22 -1 10 6 16 21 16 13 1 24 -2 24 -7z m275 1
c-3 -5 -16 -10 -28 -9 -20 1 -20 2 3 9 14 4 26 8 28 9 2 1 0 -3 -3 -9z m81
-11 c10 -17 -13 -36 -27 -22 -12 12 -4 33 11 33 5 0 12 -5 16 -11z m-246 -20
c0 -16 -5 -20 -27 -17 -14 2 -29 9 -31 17 -3 8 0 11 6 7 6 -3 13 -2 17 4 11
18 35 11 35 -11z m90 5 c0 -17 -22 -14 -28 4 -2 7 3 12 12 12 9 0 16 -7 16
-16z m-43 -9 c7 -20 -2 -29 -21 -22 -9 4 -13 13 -10 22 8 19 23 19 31 0z m101
-3 c2 -7 -3 -12 -12 -12 -9 0 -16 7 -16 16 0 17 22 14 28 -4z m47 -12 c-5 -8
-11 -8 -17 -2 -6 6 -7 16 -3 22 5 8 11 8 17 2 6 -6 7 -16 3 -22z"/>
<path d="M3070 830 c0 -5 7 -10 16 -10 8 0 12 5 9 10 -3 6 -10 10 -16 10 -5 0
-9 -4 -9 -10z"/>
<path d="M3686 1227 c3 -10 9 -15 12 -12 3 3 0 11 -7 18 -10 9 -11 8 -5 -6z"/>
<path d="M5895 1211 c-3 -5 -1 -12 5 -16 12 -7 30 2 30 16 0 12 -27 12 -35 0z"/>
<path d="M916 1171 c-3 -5 2 -64 11 -132 10 -68 19 -115 21 -104 1 11 -4 67
-12 125 -11 80 -12 106 -3 112 9 6 9 8 0 8 -6 0 -14 -4 -17 -9z"/>
<path d="M1038 1167 c14 -17 9 -49 -29 -161 -11 -32 -18 -60 -15 -63 7 -7 56
150 59 191 1 27 -3 40 -13 44 -13 4 -13 3 -2 -11z"/>
<path d="M5851 1163 c-7 -8 -10 -17 -7 -20 9 -9 29 13 25 25 -2 6 -10 3 -18
-5z"/>
<path d="M5905 1140 c-3 -5 -3 -15 1 -21 6 -11 23 6 24 24 0 10 -18 9 -25 -3z"/>
<path d="M5857 1098 c14 -27 17 -28 25 -14 6 10 8 18 6 19 -1 1 -13 7 -24 14
-22 12 -22 11 -7 -19z"/>
<path d="M1900 1095 c-36 -8 -112 -21 -169 -30 -118 -18 -141 -27 -141 -57 0
-23 183 -370 205 -388 11 -9 40 -7 121 6 150 25 149 22 140 188 -6 119 -25
269 -37 280 -12 13 -61 13 -119 1z m-69 -76 c67 -20 118 -78 167 -190 44 -102
51 -139 28 -158 -8 -7 -58 -19 -111 -28 -93 -16 -97 -16 -114 3 -25 26 -191
336 -191 357 0 10 11 19 28 23 15 3 32 8 37 10 17 6 110 -4 156 -17z"/>
<path d="M5541 1081 c-19 -12 -25 -147 -11 -246 11 -80 13 -84 62 -131 57 -57
90 -113 91 -160 1 -42 15 -32 56 40 43 76 57 128 42 164 -12 28 -24 37 -82 60
-24 9 -25 13 -21 69 4 56 2 62 -28 96 -17 20 -46 42 -65 48 -29 11 -33 16 -30
41 2 15 3 28 2 28 -1 0 -8 -4 -16 -9z"/>
<path d="M428 1073 c7 -3 16 -2 19 1 4 3 -2 6 -13 5 -11 0 -14 -3 -6 -6z"/>
<path d="M1413 1067 c1 -7 -9 -13 -23 -15 -14 -2 -30 -8 -37 -13 -7 -7 -14 -6
-18 1 -8 12 -25 4 -25 -13 0 -8 3 -8 9 2 7 10 12 8 25 -10 16 -22 17 -22 14
-4 -2 16 3 21 27 23 16 2 33 8 36 14 4 7 9 6 13 -1 4 -6 2 -11 -3 -11 -6 0
-11 -4 -11 -10 0 -16 14 -12 26 8 10 15 7 20 -12 29 -17 8 -23 8 -21 0z"/>
<path d="M2697 1050 c-3 -11 -1 -20 4 -20 5 0 9 8 10 18 0 15 2 14 10 -3 8
-19 9 -19 6 -1 -3 27 -23 31 -30 6z"/>
<path d="M450 1041 c0 -6 -9 -11 -20 -11 -54 0 -109 -51 -120 -110 -6 -35 -4
-46 22 -81 50 -69 128 -77 181 -19 27 30 28 36 25 116 -1 47 -4 80 -6 74 -6
-16 -18 -12 -51 16 -17 14 -31 21 -31 15z"/>
<path d="M1418 1003 c6 -2 18 -2 25 0 6 3 1 5 -13 5 -14 0 -19 -2 -12 -5z"/>
<path d="M4440 1001 c0 -5 7 -28 15 -51 19 -55 19 -104 -1 -120 -47 -40 -37
-70 22 -70 20 0 34 -6 38 -16 9 -25 8 -27 -19 -22 -13 3 -22 1 -19 -3 3 -5 17
-9 30 -9 23 0 25 3 19 30 -4 19 -3 30 4 30 20 0 12 30 -14 54 -18 17 -25 34
-25 60 0 55 -20 126 -36 126 -8 0 -14 -4 -14 -9z"/>
<path d="M1301 988 c-1 -16 24 -48 38 -48 4 0 7 9 7 19 0 15 -3 17 -13 9 -10
-8 -15 -4 -22 13 -7 17 -10 19 -10 7z"/>
<path d="M1364 989 c-4 -8 -3 -10 4 -5 6 4 21 2 32 -4 13 -7 20 -7 20 0 0 5
-4 10 -9 10 -5 0 -16 3 -24 6 -8 3 -18 0 -23 -7z"/>
<path d="M2973 993 c9 -2 25 -2 35 0 9 3 1 5 -18 5 -19 0 -27 -2 -17 -5z"/>
<path d="M2470 977 c0 -12 -9 -17 -27 -18 -17 -1 -21 -3 -10 -6 9 -2 17 -9 17
-15 0 -6 9 0 19 13 l19 24 13 -27 c6 -15 20 -30 31 -33 10 -4 18 -14 19 -23 0
-13 2 -13 6 -3 3 8 -5 22 -18 32 l-24 18 28 -3 c16 -2 27 2 27 9 0 8 -9 10
-26 7 -17 -3 -33 3 -50 18 -20 20 -24 21 -24 7z"/>
<path d="M2380 955 c0 -7 5 -17 12 -21 6 -4 8 -3 4 4 -3 5 -1 12 6 14 8 3 6 7
-5 11 -11 4 -17 1 -17 -8z"/>
<path d="M6180 952 c0 -7 5 -12 11 -12 5 0 7 -4 4 -10 -11 -17 42 -11 56 7 13
15 12 15 -8 3 -19 -12 -24 -12 -42 4 -12 11 -21 14 -21 8z"/>
<path d="M6097 910 c4 -14 0 -20 -13 -20 -9 0 -14 -3 -11 -7 4 -3 18 0 32 7
19 10 22 16 14 27 -17 19 -28 16 -22 -7z"/>
<path d="M6161 912 c-12 -13 -12 -14 0 -10 8 3 22 1 32 -4 22 -11 22 4 -1 18
-13 9 -21 8 -31 -4z"/>
<path d="M2350 912 c0 -19 47 -48 66 -41 17 7 17 8 1 8 -10 1 -28 6 -40 13
-21 11 -21 11 -2 19 19 7 19 8 -2 8 -13 1 -23 -3 -23 -7z"/>
<path d="M2582 913 c25 -6 31 -33 7 -33 -11 0 -18 -4 -15 -9 4 -5 0 -12 -6
-14 -9 -4 -7 -6 3 -6 19 -1 52 33 42 43 -4 4 -2 11 5 15 8 5 1 8 -20 8 -18 0
-26 -2 -16 -4z"/>
<path d="M2888 893 c5 -21 7 -23 10 -9 2 10 0 22 -6 28 -6 6 -7 0 -4 -19z"/>
<path d="M6243 913 c-16 -6 -17 -29 -1 -39 7 -4 8 -3 4 5 -4 6 -2 18 4 26 13
16 12 16 -7 8z"/>
<path d="M6037 888 c-6 -17 11 -48 25 -48 6 0 4 8 -5 18 -13 14 -14 21 -5 30
8 8 9 12 1 12 -6 0 -13 -6 -16 -12z"/>
<path d="M2466 877 c3 -10 9 -15 12 -12 3 3 0 11 -7 18 -10 9 -11 8 -5 -6z"/>
<path d="M3783 882 c-7 -4 -9 -13 -4 -21 6 -10 10 -9 15 5 8 20 4 25 -11 16z"/>
<path d="M2456 845 c10 -16 19 -31 20 -33 1 -2 5 5 8 15 4 9 4 14 0 11 -3 -4
-15 3 -26 15 -19 22 -19 22 -2 -8z"/>
<path d="M4020 848 c-12 -22 -12 -22 6 -6 10 10 15 20 12 24 -4 3 -12 -5 -18
-18z"/>
<path d="M2501 856 c2 -2 15 -9 29 -15 24 -11 24 -11 6 3 -16 13 -49 24 -35
12z"/>
<path d="M3946 842 c-9 -27 0 -99 15 -122 8 -12 17 -7 49 30 22 25 40 55 40
68 0 33 -17 27 -36 -13 -19 -42 -24 -43 -24 -9 0 14 4 23 10 19 15 -9 12 7 -5
29 -15 19 -15 19 -15 -2 0 -29 -18 -28 -22 1 l-4 22 -8 -23z"/>
<path d="M6089 848 c-5 -16 -4 -46 2 -42 4 2 7 13 6 24 -1 17 -5 26 -8 18z"/>
<path d="M765 818 c-19 -50 -45 -181 -51 -251 -7 -92 11 -340 29 -396 18 -54
42 -61 212 -61 159 1 167 3 199 52 40 62 62 496 30 609 l-16 58 -52 -7 c-67
-9 -161 -9 -264 1 -63 6 -84 5 -87 -5z m65 -44 c0 -14 -10 -49 -22 -77 -22
-49 -23 -66 -23 -270 0 -200 -7 -265 -19 -185 -23 151 -11 437 22 511 23 52
42 61 42 21z"/>
<path d="M6175 810 c-14 -15 -21 -17 -32 -9 -8 7 -13 8 -13 1 0 -18 28 -21 41
-5 8 8 22 19 34 23 14 6 16 9 4 9 -9 1 -24 -8 -34 -19z"/>
<path d="M6238 823 c7 -3 16 -2 19 1 4 3 -2 6 -13 5 -11 0 -14 -3 -6 -6z"/>
<path d="M5078 809 c-16 -9 -29 -40 -42 -100 -5 -24 -11 -27 -66 -31 -67 -5
-101 -24 -138 -79 -20 -28 -23 -43 -20 -87 5 -56 25 -91 72 -126 23 -17 42
-21 114 -21 77 0 92 3 134 28 27 15 55 41 63 57 31 59 8 160 -42 183 -20 9
-23 16 -18 41 4 27 4 28 -5 9 -10 -23 -27 -28 -68 -17 -25 7 -25 24 -1 102 12
38 40 43 63 10 18 -25 22 -17 6 11 -12 24 -32 31 -52 20z m-147 -332 c-13 -13
-26 -3 -16 12 3 6 11 8 17 5 6 -4 6 -10 -1 -17z"/>
<path d="M4116 799 c4 -7 0 -9 -13 -5 -14 5 -32 -4 -62 -32 -22 -20 -41 -41
-41 -45 0 -10 54 -9 85 3 16 6 23 14 19 22 -4 6 -3 8 4 4 6 -3 14 -1 17 5 5 7
-8 9 -41 5 -27 -3 -39 -2 -26 2 13 4 23 12 23 17 0 6 7 9 14 7 8 -1 27 4 42
12 l28 15 -28 1 c-18 0 -26 -4 -21 -11z"/>
<path d="M88 773 c7 -3 16 -2 19 1 4 3 -2 6 -13 5 -11 0 -14 -3 -6 -6z"/>
<path d="M2301 771 c-7 -5 -12 -14 -9 -21 5 -16 38 -22 38 -8 0 6 -7 8 -15 4
-13 -4 -14 -2 -5 14 12 22 11 23 -9 11z"/>
<path d="M0 760 c0 -5 5 -10 10 -10 6 0 10 5 10 10 0 6 -4 10 -10 10 -5 0 -10
-4 -10 -10z"/>
<path d="M60 735 c0 -8 5 -15 10 -15 6 0 10 7 10 15 0 8 -4 15 -10 15 -5 0
-10 -7 -10 -15z"/>
<path d="M1387 743 c-4 -3 -7 -27 -7 -51 0 -55 11 -48 20 13 6 42 2 54 -13 38z"/>
<path d="M1426 707 c-4 -27 -5 -51 -2 -54 7 -7 19 61 14 84 -2 10 -8 -4 -12
-30z"/>
<path d="M1466 735 c-3 -9 -6 -26 -5 -38 1 -16 4 -12 10 12 10 34 6 55 -5 26z"/>
<path d="M3690 738 c-52 -15 -86 -43 -104 -88 -30 -76 -14 -131 51 -170 114
-69 245 2 247 134 1 107 -77 158 -194 124z m45 -18 c-3 -5 -11 -10 -16 -10 -6
0 -7 5 -4 10 3 6 11 10 16 10 6 0 7 -4 4 -10z m-75 -19 c0 -12 -20 -25 -27
-18 -7 7 6 27 18 27 5 0 9 -4 9 -9z m-44 -53 c-9 -12 -16 -31 -16 -42 0 -11
-3 -17 -6 -14 -11 12 8 78 23 78 12 0 12 -3 -1 -22z"/>
<path d="M4448 743 c6 -2 18 -2 25 0 6 3 1 5 -13 5 -14 0 -19 -2 -12 -5z"/>
<path d="M5142 730 c0 -14 2 -19 5 -12 2 6 2 18 0 25 -3 6 -5 1 -5 -13z"/>
<path d="M1484 690 c-13 -31 -19 -38 -26 -28 -8 10 -9 9 -4 -4 4 -13 -3 -18
-32 -21 l-37 -4 41 -1 c38 -2 41 0 62 44 13 26 21 49 18 51 -3 3 -13 -13 -22
-37z"/>
<path d="M150 704 c0 -8 5 -12 10 -9 6 3 10 10 10 16 0 5 -4 9 -10 9 -5 0 -10
-7 -10 -16z"/>
<path d="M4415 680 c-4 -12 -4 -24 -1 -27 3 -4 6 1 6 11 0 10 5 14 12 10 6 -4
8 -3 5 3 -10 16 86 3 99 -13 16 -20 23 -17 17 6 -4 16 -14 20 -47 20 -22 0
-51 3 -63 6 -16 4 -23 0 -28 -16z"/>
<path d="M12 659 c2 -6 8 -10 13 -10 5 0 11 4 13 10 2 6 -4 11 -13 11 -9 0
-15 -5 -13 -11z"/>
<path d="M4018 663 c7 -3 16 -2 19 1 4 3 -2 6 -13 5 -11 0 -14 -3 -6 -6z"/>
<path d="M4450 660 c-18 -12 -2 -12 25 0 13 6 15 9 5 9 -8 0 -22 -4 -30 -9z"/>
<path d="M4073 653 c9 -2 25 -2 35 0 9 3 1 5 -18 5 -19 0 -27 -2 -17 -5z"/>
<path d="M5990 640 c-13 -9 -13 -10 0 -10 13 0 13 -1 0 -10 -13 -8 -13 -10 2
-10 11 0 16 7 15 20 -1 11 -1 20 -2 20 0 0 -7 -5 -15 -10z"/>
<path d="M135 630 c3 -5 8 -10 11 -10 2 0 4 5 4 10 0 6 -5 10 -11 10 -5 0 -7
-4 -4 -10z"/>
<path d="M3376 633 c6 -4 14 -15 17 -23 5 -11 6 -9 4 4 -1 11 -9 21 -17 23
-10 3 -11 2 -4 -4z"/>
<path d="M4372 569 c-12 -34 -20 -64 -18 -66 6 -6 47 108 44 119 -2 5 -14 -19
-26 -53z"/>
<path d="M4560 625 c0 -5 5 -17 10 -25 5 -8 10 -10 10 -5 0 6 -5 17 -10 25 -5
8 -10 11 -10 5z"/>
<path d="M17 613 c-4 -3 -7 -11 -7 -17 0 -6 5 -5 12 2 6 6 9 14 7 17 -3 3 -9
2 -12 -2z"/>
<path d="M271 604 c0 -11 3 -14 6 -6 3 7 2 16 -1 19 -3 4 -6 -2 -5 -13z"/>
<path d="M4080 600 c0 -11 5 -20 10 -20 6 0 10 9 10 20 0 11 -4 20 -10 20 -5
0 -10 -9 -10 -20z"/>
<path d="M1602 560 c-1 -20 -8 -42 -14 -49 -7 -8 -8 -11 -2 -8 7 4 9 -12 6
-51 -2 -31 -2 -55 1 -52 3 3 7 23 8 45 2 22 6 42 9 45 3 3 2 28 -1 55 -5 41
-6 44 -7 15z"/>
<path d="M3976 574 c-9 -22 3 -32 14 -14 12 19 12 30 1 30 -5 0 -12 -7 -15
-16z"/>
<path d="M4036 574 c-9 -22 3 -32 14 -14 12 19 12 30 1 30 -5 0 -12 -7 -15
-16z"/>
<path d="M4581 570 c0 -8 4 -24 9 -35 5 -13 9 -14 9 -5 0 8 -4 24 -9 35 -5 13
-9 14 -9 5z"/>
<path d="M90 540 c0 -5 5 -10 10 -10 6 0 10 5 10 10 0 6 -4 10 -10 10 -5 0
-10 -4 -10 -10z"/>
<path d="M4076 534 c-8 -21 -8 -21 9 -28 11 -4 15 1 15 19 0 28 -15 33 -24 9z"/>
<path d="M4112 510 c0 -14 2 -19 5 -12 2 6 2 18 0 25 -3 6 -5 1 -5 -13z"/>
<path d="M3966 494 c-11 -27 -7 -37 9 -24 16 14 20 40 6 40 -5 0 -12 -7 -15
-16z"/>
<path d="M4601 494 c0 -11 3 -14 6 -6 3 7 2 16 -1 19 -3 4 -6 -2 -5 -13z"/>
<path d="M1440 406 c0 -90 -1 -95 -22 -99 -23 -4 -23 -4 -1 -6 14 -1 23 -9 26
-23 2 -13 5 32 6 100 0 67 -1 122 -4 122 -3 0 -5 -42 -5 -94z"/>
<path d="M2365 482 l-50 -17 -3 -51 c-3 -49 -2 -52 25 -58 15 -4 120 -9 233
-12 276 -8 313 3 295 86 -8 38 -28 49 -105 57 -51 5 -60 3 -60 -10 0 -10 13
-20 33 -25 l32 -9 -28 -12 c-16 -6 -57 -11 -93 -11 -53 0 -66 3 -76 20 -9 14
-24 20 -49 20 -21 0 -47 8 -62 20 -30 24 -29 24 -92 2z"/>
<path d="M1392 465 c0 -16 2 -22 5 -12 2 9 2 23 0 30 -3 6 -5 -1 -5 -18z"/>
<path d="M4335 460 c-4 -17 -5 -34 -2 -36 3 -3 8 9 12 26 4 17 5 34 2 36 -3 3
-8 -9 -12 -26z"/>
<path d="M310 470 c0 -5 5 -10 10 -10 6 0 10 5 10 10 0 6 -4 10 -10 10 -5 0
-10 -4 -10 -10z"/>
<path d="M4046 464 c-4 -9 -4 -19 -2 -21 8 -8 26 8 26 23 0 19 -16 18 -24 -2z"/>
<path d="M3221 426 l-43 -44 -49 18 c-27 10 -51 15 -54 10 -3 -4 -17 -11 -32
-15 -48 -11 -73 -43 -73 -92 0 -91 51 -143 139 -143 59 1 76 9 104 50 21 30
22 99 2 126 -22 29 -18 43 21 90 45 56 40 56 -15 0z"/>
<path d="M4101 454 c0 -11 3 -14 6 -6 3 7 2 16 -1 19 -3 4 -6 -2 -5 -13z"/>
<path d="M4602 412 c-1 -31 -8 -60 -15 -64 -7 -4 -3 -6 10 -6 19 2 21 8 21 60
0 75 -12 83 -16 10z"/>
<path d="M1561 434 c0 -11 3 -14 6 -6 3 7 2 16 -1 19 -3 4 -6 -2 -5 -13z"/>
<path d="M4076 431 c-4 -7 -5 -15 -2 -18 9 -9 19 4 14 18 -4 11 -6 11 -12 0z"/>
<path d="M5379 393 c-17 -26 -26 -43 -19 -36 7 6 19 9 28 6 12 -5 14 -1 10 15
-4 12 -3 22 2 22 9 0 23 31 16 37 -2 2 -19 -17 -37 -44z"/>
<path d="M3447 421 c6 -7 9 -20 6 -27 -3 -8 -3 -14 0 -14 14 0 14 30 -1 41
-14 11 -15 11 -5 0z"/>
<path d="M3872 404 c-2 -23 0 -25 13 -14 12 10 13 16 4 26 -15 18 -14 18 -17
-12z"/>
<path d="M3637 409 c7 -7 15 -10 18 -7 3 3 -2 9 -12 12 -14 6 -15 5 -6 -5z"/>
<path d="M3840 410 c-9 -6 -10 -10 -3 -10 6 0 15 5 18 10 8 12 4 12 -15 0z"/>
<path d="M3930 401 c-16 -30 -12 -36 10 -16 21 19 26 35 10 35 -5 0 -14 -9
-20 -19z"/>
<path d="M3993 405 c-8 -22 6 -33 17 -15 13 20 12 30 0 30 -6 0 -13 -7 -17
-15z"/>
<path d="M1382 334 c-1 -45 -4 -103 -7 -130 l-4 -49 10 48 c5 27 8 86 6 130
l-3 82 -2 -81z"/>
<path d="M2066 365 c-36 -43 -38 -44 -80 -39 -41 6 -47 4 -89 -35 -52 -49 -64
-84 -44 -132 31 -74 102 -98 180 -60 70 34 87 99 42 165 -32 47 -31 55 5 101
17 21 30 39 30 41 0 10 -11 0 -44 -41z"/>
<path d="M1570 384 c0 -8 5 -12 10 -9 6 4 8 11 5 16 -9 14 -15 11 -15 -7z"/>
<path d="M5772 390 c-55 -23 -276 -167 -285 -187 -13 -29 14 -73 46 -73 13 0
50 16 83 36 32 20 86 52 119 72 110 64 139 107 97 145 -21 19 -27 20 -60 7z"/>
<path d="M1595 359 c-3 -20 -5 -49 -2 -65 3 -22 4 -19 6 14 0 23 6 42 11 42 6
0 10 -6 10 -13 0 -7 16 -44 36 -83 20 -38 33 -56 29 -40 -3 15 -16 41 -27 57
-13 17 -22 44 -22 64 0 21 -5 35 -12 35 -7 0 -14 6 -17 13 -2 6 -8 -4 -12 -24z"/>
<path d="M3392 359 c11 -33 23 -40 15 -9 -4 17 -2 20 14 15 31 -10 22 2 -10
13 -29 10 -29 10 -19 -19z"/>
<path d="M3484 358 c15 -36 10 -87 -9 -94 -16 -7 -87 35 -79 47 3 5 0 9 -5 9
-23 0 -9 -21 30 -46 46 -29 65 -26 79 12 11 28 -2 88 -20 99 -5 3 -3 -9 4 -27z"/>
<path d="M3738 383 c12 -2 30 -2 40 0 9 3 -1 5 -23 4 -22 0 -30 -2 -17 -4z"/>
<path d="M4020 371 c-6 -12 -6 -22 -1 -26 6 -3 15 3 21 14 6 12 6 22 1 26 -6
3 -15 -3 -21 -14z"/>
<path d="M4082 365 c0 -16 2 -22 5 -12 2 9 2 23 0 30 -3 6 -5 -1 -5 -18z"/>
<path d="M3946 355 c-8 -23 -8 -35 3 -35 13 0 23 32 13 42 -6 6 -12 3 -16 -7z"/>
<path d="M4330 349 c0 -17 3 -17 20 -7 20 13 19 21 -5 24 -9 1 -15 -6 -15 -17z"/>
<path d="M1563 325 c0 -22 2 -30 4 -17 2 12 2 30 0 40 -3 9 -5 -1 -4 -23z"/>
<path d="M3720 344 c0 -8 5 -12 10 -9 6 3 10 10 10 16 0 5 -4 9 -10 9 -5 0
-10 -7 -10 -16z"/>
<path d="M3865 349 c-4 -6 -5 -13 -2 -16 7 -7 27 6 27 18 0 12 -17 12 -25 -2z"/>
<path d="M479 343 c0 -5 -2 -16 -4 -26 -2 -11 -1 -16 3 -13 8 8 14 46 7 46 -3
0 -5 -3 -6 -7z"/>
<path d="M3632 330 c0 -14 2 -19 5 -12 2 6 2 18 0 25 -3 6 -5 1 -5 -13z"/>
<path d="M4438 343 c23 -2 61 -2 85 0 23 2 4 4 -43 4 -47 0 -66 -2 -42 -4z"/>
<path d="M3780 330 c0 -5 7 -10 15 -10 8 0 15 5 15 10 0 6 -7 10 -15 10 -8 0
-15 -4 -15 -10z"/>
<path d="M5325 310 c-9 -16 -13 -30 -11 -30 3 0 12 14 21 30 9 17 13 30 11 30
-3 0 -12 -13 -21 -30z"/>
<path d="M501 314 c0 -11 3 -14 6 -6 3 7 2 16 -1 19 -3 4 -6 -2 -5 -13z"/>
<path d="M3997 313 c-10 -9 -9 -23 2 -23 5 0 11 7 15 15 5 15 -5 20 -17 8z"/>
<path d="M5995 297 c-28 -13 -65 -39 -84 -57 -32 -33 -33 -36 -28 -97 2 -34
13 -79 24 -100 l20 -38 166 -3 167 -2 0 143 0 144 -27 13 c-16 7 -64 15 -108
17 -69 3 -87 1 -130 -20z"/>
<path d="M2366 278 c-12 -17 -16 -47 -16 -125 0 -60 4 -103 10 -103 5 0 7 -6
4 -14 -3 -8 3 -19 15 -25 27 -15 98 -14 108 2 9 14 11 257 2 251 -4 -2 -6 4
-5 14 1 14 -9 18 -51 20 -44 3 -53 0 -67 -20z"/>
<path d="M3718 293 c7 -3 16 -2 19 1 4 3 -2 6 -13 5 -11 0 -14 -3 -6 -6z"/>
<path d="M3793 293 c9 -2 25 -2 35 0 9 3 1 5 -18 5 -19 0 -27 -2 -17 -5z"/>
<path d="M3888 293 c6 -2 18 -2 25 0 6 3 1 5 -13 5 -14 0 -19 -2 -12 -5z"/>
<path d="M1571 270 c-1 -19 51 -111 74 -130 10 -8 6 3 -9 25 -15 21 -29 49
-32 62 -4 13 -10 23 -14 23 -5 0 -11 8 -13 18 -3 12 -5 13 -6 2z"/>
<path d="M2693 272 c-9 -6 -13 -48 -15 -137 l-3 -130 55 -3 c75 -4 80 5 80
139 0 100 -2 109 -22 123 -24 17 -75 21 -95 8z"/>
<path d="M3623 273 c9 -2 23 -2 30 0 6 3 -1 5 -18 5 -16 0 -22 -2 -12 -5z"/>
<path d="M5295 259 c-4 -6 -5 -12 -2 -15 2 -3 7 2 10 11 7 17 1 20 -8 4z"/>
<path d="M350 235 c0 -17 5 -36 11 -42 17 -17 -34 -49 -102 -62 -57 -12 -156
-9 -232 5 -27 5 -27 5 -27 -44 0 -49 0 -49 37 -56 59 -9 234 -7 274 4 52 14
90 59 96 113 5 39 2 48 -26 78 l-30 34 -1 -30z"/>
<path d="M1451 210 c-2 -58 -12 -74 -45 -68 -14 3 -23 1 -20 -3 3 -5 18 -9 34
-9 25 0 30 5 35 33 4 19 5 47 2 63 -3 21 -4 17 -6 -16z"/>
<path d="M4826 225 c4 -8 8 -15 10 -15 2 0 4 7 4 15 0 8 -4 15 -10 15 -5 0 -7
-7 -4 -15z"/>
<path d="M4800 220 c0 -5 5 -10 11 -10 5 0 7 5 4 10 -3 6 -8 10 -11 10 -2 0
-4 -4 -4 -10z"/>
<path d="M5016 211 c-35 -23 -50 -47 -36 -56 5 -3 10 1 10 9 0 8 15 26 33 40
38 30 34 34 -7 7z"/>
<path d="M2564 206 c-9 -22 0 -101 11 -99 14 4 19 113 5 113 -6 0 -13 -6 -16
-14z"/>
<path d="M2613 155 c0 -22 2 -30 4 -17 2 12 2 30 0 40 -3 9 -5 -1 -4 -23z"/>
<path d="M1691 164 c0 -11 3 -14 6 -6 3 7 2 16 -1 19 -3 4 -6 -2 -5 -13z"/>
<path d="M5140 149 c-3 -19 -3 -46 1 -60 7 -23 7 -23 8 -1 1 29 28 29 34 0 4
-23 4 -23 6 0 1 16 -6 26 -18 29 -13 3 -21 15 -23 37 l-3 31 -5 -36z"/>
<path d="M4907 163 c-4 -3 -7 -11 -7 -17 0 -6 5 -5 12 2 6 6 9 14 7 17 -3 3
-9 2 -12 -2z"/>
<path d="M4960 87 c0 -50 4 -68 18 -78 15 -13 16 -12 4 3 -8 9 -12 27 -10 40
2 18 9 22 28 21 22 -2 23 -2 5 6 -11 5 -23 7 -27 4 -4 -2 -5 9 -2 25 4 17 1
32 -5 36 -8 5 -11 -13 -11 -57z"/>
<path d="M3872 93 c-1 -21 3 -50 9 -65 11 -26 15 -28 70 -28 56 0 59 1 59 24
0 37 -40 78 -78 80 -17 0 -34 7 -37 14 -9 24 -20 12 -23 -25z"/>
<path d="M3843 94 c-7 -7 -13 -19 -13 -26 0 -7 7 -2 16 10 18 26 16 37 -3 16z"/>
<path d="M5100 91 c-13 -25 -13 -41 1 -41 5 0 7 4 4 10 -3 5 -1 19 5 30 6 11
8 20 6 20 -3 0 -10 -9 -16 -19z"/>
<path d="M5240 51 c24 -28 46 -51 51 -51 4 0 -6 14 -22 31 -16 17 -29 34 -29
38 0 3 -10 12 -21 20 -13 7 -3 -9 21 -38z"/>
<path d="M3150 38 l-45 -33 78 -3 c43 -2 110 -2 150 0 l72 3 -57 27 c-31 15
-78 30 -105 33 -44 6 -52 4 -93 -27z"/>
<path d="M4285 60 c3 -5 8 -10 11 -10 2 0 4 5 4 10 0 6 -5 10 -11 10 -5 0 -7
-4 -4 -10z"/>
<path d="M5038 63 c6 -2 18 -2 25 0 6 3 1 5 -13 5 -14 0 -19 -2 -12 -5z"/>
<path d="M466 36 c-4 -17 -14 -26 -34 -29 -26 -4 -26 -4 4 -6 27 -1 33 3 38
25 4 15 5 28 3 31 -3 2 -7 -7 -11 -21z"/>
<path d="M5135 50 c-15 -6 -10 -8 18 -8 20 0 37 1 37 3 0 8 -38 11 -55 5z"/>
<path d="M5695 40 c3 -5 8 -10 11 -10 2 0 4 5 4 10 0 6 -5 10 -11 10 -5 0 -7
-4 -4 -10z"/>
<path d="M501 14 c0 -11 3 -14 6 -6 3 7 2 16 -1 19 -3 4 -6 -2 -5 -13z"/>
<path d="M617 23 c-17 -17 -2 -23 56 -22 61 1 61 1 32 14 -32 15 -77 19 -88 8z"/>
<path d="M5180 22 c0 -4 16 -8 35 -8 21 0 30 3 22 8 -16 10 -57 10 -57 0z"/>
<path d="M5676 13 c-6 -14 -5 -15 5 -6 7 7 10 15 7 18 -3 3 -9 -2 -12 -12z"/>
<path d="M1125 10 c-3 -5 -2 -10 4 -10 5 0 13 5 16 10 3 6 2 10 -4 10 -5 0
-13 -4 -16 -10z"/>
</g>
</svg>
